<mxfile host="Electron" modified="2023-09-08T09:23:15.197Z" agent="Mozilla/5.0 (Windows NT 10.0; Win64; x64) AppleWebKit/537.36 (KHTML, like Gecko) draw.io/21.6.8 Chrome/114.0.5735.289 Electron/25.5.0 Safari/537.36" etag="7n5Ud4AOGgz388a_Ox_f" version="21.6.8" type="device">
  <diagram name="Pagina-1" id="P2irHhzb5EJcoQHnUQgg">
    <mxGraphModel dx="2175" dy="1416" grid="1" gridSize="10" guides="1" tooltips="1" connect="1" arrows="1" fold="1" page="1" pageScale="1" pageWidth="827" pageHeight="1169" math="0" shadow="0">
      <root>
        <mxCell id="0" />
        <mxCell id="1" parent="0" />
        <mxCell id="Ar0EWjiSAePKsgkhpnwZ-1" value="&lt;span style=&quot;font-weight: normal;&quot;&gt;&lt;i&gt;NumExpr&lt;/i&gt;&lt;/span&gt;" style="swimlane;fontStyle=1;align=center;verticalAlign=top;childLayout=stackLayout;horizontal=1;startSize=26;horizontalStack=0;resizeParent=1;resizeParentMax=0;resizeLast=0;collapsible=1;marginBottom=0;whiteSpace=wrap;html=1;" parent="1" vertex="1">
          <mxGeometry x="900" y="600" width="160" height="52" as="geometry">
            <mxRectangle x="290" y="140" width="90" height="30" as="alternateBounds" />
          </mxGeometry>
        </mxCell>
        <mxCell id="Ar0EWjiSAePKsgkhpnwZ-2" value="&lt;i&gt;+ accept(v: Visitor*): void&lt;/i&gt;" style="text;strokeColor=none;fillColor=none;align=left;verticalAlign=top;spacingLeft=4;spacingRight=4;overflow=hidden;rotatable=0;points=[[0,0.5],[1,0.5]];portConstraint=eastwest;whiteSpace=wrap;html=1;" parent="Ar0EWjiSAePKsgkhpnwZ-1" vertex="1">
          <mxGeometry y="26" width="160" height="26" as="geometry" />
        </mxCell>
        <mxCell id="Ar0EWjiSAePKsgkhpnwZ-5" value="Operator" style="swimlane;fontStyle=1;align=center;verticalAlign=top;childLayout=stackLayout;horizontal=1;startSize=26;horizontalStack=0;resizeParent=1;resizeParentMax=0;resizeLast=0;collapsible=1;marginBottom=0;whiteSpace=wrap;html=1;" parent="1" vertex="1">
          <mxGeometry x="520" y="740" width="310" height="170" as="geometry" />
        </mxCell>
        <mxCell id="Ar0EWjiSAePKsgkhpnwZ-6" value="- op: OpCode&lt;br&gt;- first: NumExpr*&lt;br&gt;- second: NumExpr*&lt;br&gt;+ OpCode: enum = { ADD, SUB, MUL, DIV, NULL_VAL }" style="text;strokeColor=none;fillColor=none;align=left;verticalAlign=top;spacingLeft=4;spacingRight=4;overflow=hidden;rotatable=0;points=[[0,0.5],[1,0.5]];portConstraint=eastwest;whiteSpace=wrap;html=1;" parent="Ar0EWjiSAePKsgkhpnwZ-5" vertex="1">
          <mxGeometry y="26" width="310" height="74" as="geometry" />
        </mxCell>
        <mxCell id="Ar0EWjiSAePKsgkhpnwZ-7" value="" style="line;strokeWidth=1;fillColor=none;align=left;verticalAlign=middle;spacingTop=-1;spacingLeft=3;spacingRight=3;rotatable=0;labelPosition=right;points=[];portConstraint=eastwest;strokeColor=inherit;" parent="Ar0EWjiSAePKsgkhpnwZ-5" vertex="1">
          <mxGeometry y="100" width="310" height="10" as="geometry" />
        </mxCell>
        <mxCell id="Ar0EWjiSAePKsgkhpnwZ-8" value="+ accept(v: Visitor*): void&lt;br&gt;+ string2OpCode(s:std::string): static OpCode&lt;br&gt;+ opCode2String(op: OpCode): static std::string" style="text;strokeColor=none;fillColor=none;align=left;verticalAlign=top;spacingLeft=4;spacingRight=4;overflow=hidden;rotatable=0;points=[[0,0.5],[1,0.5]];portConstraint=eastwest;whiteSpace=wrap;html=1;" parent="Ar0EWjiSAePKsgkhpnwZ-5" vertex="1">
          <mxGeometry y="110" width="310" height="60" as="geometry" />
        </mxCell>
        <mxCell id="Ar0EWjiSAePKsgkhpnwZ-10" value="Number" style="swimlane;fontStyle=1;align=center;verticalAlign=top;childLayout=stackLayout;horizontal=1;startSize=26;horizontalStack=0;resizeParent=1;resizeParentMax=0;resizeLast=0;collapsible=1;marginBottom=0;whiteSpace=wrap;html=1;" parent="1" vertex="1">
          <mxGeometry x="900" y="740" width="160" height="86" as="geometry" />
        </mxCell>
        <mxCell id="Ar0EWjiSAePKsgkhpnwZ-11" value="- value: int64_t" style="text;strokeColor=none;fillColor=none;align=left;verticalAlign=top;spacingLeft=4;spacingRight=4;overflow=hidden;rotatable=0;points=[[0,0.5],[1,0.5]];portConstraint=eastwest;whiteSpace=wrap;html=1;" parent="Ar0EWjiSAePKsgkhpnwZ-10" vertex="1">
          <mxGeometry y="26" width="160" height="26" as="geometry" />
        </mxCell>
        <mxCell id="Ar0EWjiSAePKsgkhpnwZ-12" value="" style="line;strokeWidth=1;fillColor=none;align=left;verticalAlign=middle;spacingTop=-1;spacingLeft=3;spacingRight=3;rotatable=0;labelPosition=right;points=[];portConstraint=eastwest;strokeColor=inherit;" parent="Ar0EWjiSAePKsgkhpnwZ-10" vertex="1">
          <mxGeometry y="52" width="160" height="8" as="geometry" />
        </mxCell>
        <mxCell id="Ar0EWjiSAePKsgkhpnwZ-13" value="+ accept(v: Visitor): void" style="text;strokeColor=none;fillColor=none;align=left;verticalAlign=top;spacingLeft=4;spacingRight=4;overflow=hidden;rotatable=0;points=[[0,0.5],[1,0.5]];portConstraint=eastwest;whiteSpace=wrap;html=1;" parent="Ar0EWjiSAePKsgkhpnwZ-10" vertex="1">
          <mxGeometry y="60" width="160" height="26" as="geometry" />
        </mxCell>
        <mxCell id="Ar0EWjiSAePKsgkhpnwZ-15" value="" style="endArrow=block;endSize=16;endFill=0;html=1;rounded=0;exitX=0.5;exitY=0;exitDx=0;exitDy=0;" parent="1" source="Ar0EWjiSAePKsgkhpnwZ-10" target="Ar0EWjiSAePKsgkhpnwZ-1" edge="1">
          <mxGeometry x="-0.7727" width="160" relative="1" as="geometry">
            <mxPoint x="990" y="750" as="sourcePoint" />
            <mxPoint x="1100" y="700" as="targetPoint" />
            <mxPoint as="offset" />
          </mxGeometry>
        </mxCell>
        <mxCell id="Ar0EWjiSAePKsgkhpnwZ-18" value="" style="endArrow=block;endSize=16;endFill=0;html=1;rounded=0;exitX=0.5;exitY=0;exitDx=0;exitDy=0;edgeStyle=orthogonalEdgeStyle;" parent="1" source="Ar0EWjiSAePKsgkhpnwZ-5" target="Ar0EWjiSAePKsgkhpnwZ-1" edge="1">
          <mxGeometry width="160" relative="1" as="geometry">
            <mxPoint x="690" y="760" as="sourcePoint" />
            <mxPoint x="990.3600000000001" y="669.998" as="targetPoint" />
            <Array as="points">
              <mxPoint x="675" y="700" />
              <mxPoint x="980" y="700" />
            </Array>
          </mxGeometry>
        </mxCell>
        <mxCell id="Ar0EWjiSAePKsgkhpnwZ-19" value="Variable" style="swimlane;fontStyle=1;align=center;verticalAlign=top;childLayout=stackLayout;horizontal=1;startSize=26;horizontalStack=0;resizeParent=1;resizeParentMax=0;resizeLast=0;collapsible=1;marginBottom=0;whiteSpace=wrap;html=1;" parent="1" vertex="1">
          <mxGeometry x="1100" y="740" width="260" height="124" as="geometry" />
        </mxCell>
        <mxCell id="Ar0EWjiSAePKsgkhpnwZ-20" value="+ DEFAULT_VAL: static constexpr int64_t = 0&lt;br&gt;- id: std::string&lt;br&gt;- value: int64_t" style="text;strokeColor=none;fillColor=none;align=left;verticalAlign=top;spacingLeft=4;spacingRight=4;overflow=hidden;rotatable=0;points=[[0,0.5],[1,0.5]];portConstraint=eastwest;whiteSpace=wrap;html=1;" parent="Ar0EWjiSAePKsgkhpnwZ-19" vertex="1">
          <mxGeometry y="26" width="260" height="64" as="geometry" />
        </mxCell>
        <mxCell id="Ar0EWjiSAePKsgkhpnwZ-21" value="" style="line;strokeWidth=1;fillColor=none;align=left;verticalAlign=middle;spacingTop=-1;spacingLeft=3;spacingRight=3;rotatable=0;labelPosition=right;points=[];portConstraint=eastwest;strokeColor=inherit;" parent="Ar0EWjiSAePKsgkhpnwZ-19" vertex="1">
          <mxGeometry y="90" width="260" height="8" as="geometry" />
        </mxCell>
        <mxCell id="Ar0EWjiSAePKsgkhpnwZ-22" value="+ accept(v: Visitor*): void" style="text;strokeColor=none;fillColor=none;align=left;verticalAlign=top;spacingLeft=4;spacingRight=4;overflow=hidden;rotatable=0;points=[[0,0.5],[1,0.5]];portConstraint=eastwest;whiteSpace=wrap;html=1;" parent="Ar0EWjiSAePKsgkhpnwZ-19" vertex="1">
          <mxGeometry y="98" width="260" height="26" as="geometry" />
        </mxCell>
        <mxCell id="Ar0EWjiSAePKsgkhpnwZ-23" value="" style="endArrow=block;endSize=16;endFill=0;html=1;rounded=0;edgeStyle=orthogonalEdgeStyle;" parent="1" source="Ar0EWjiSAePKsgkhpnwZ-19" target="Ar0EWjiSAePKsgkhpnwZ-1" edge="1">
          <mxGeometry width="160" relative="1" as="geometry">
            <mxPoint x="870" y="740" as="sourcePoint" />
            <mxPoint x="1030" y="740" as="targetPoint" />
            <Array as="points">
              <mxPoint x="1230" y="700" />
              <mxPoint x="980" y="700" />
            </Array>
          </mxGeometry>
        </mxCell>
        <mxCell id="Ar0EWjiSAePKsgkhpnwZ-28" value="&lt;span style=&quot;font-weight: normal;&quot;&gt;&lt;i&gt;Statement&lt;/i&gt;&lt;/span&gt;" style="swimlane;fontStyle=1;align=center;verticalAlign=top;childLayout=stackLayout;horizontal=1;startSize=26;horizontalStack=0;resizeParent=1;resizeParentMax=0;resizeLast=0;collapsible=1;marginBottom=0;whiteSpace=wrap;html=1;" parent="1" vertex="1">
          <mxGeometry x="1220" y="150" width="160" height="52" as="geometry">
            <mxRectangle x="290" y="140" width="90" height="30" as="alternateBounds" />
          </mxGeometry>
        </mxCell>
        <mxCell id="Ar0EWjiSAePKsgkhpnwZ-29" value="&lt;i&gt;+ accept(v: Visitor*): void&lt;/i&gt;" style="text;strokeColor=none;fillColor=none;align=left;verticalAlign=top;spacingLeft=4;spacingRight=4;overflow=hidden;rotatable=0;points=[[0,0.5],[1,0.5]];portConstraint=eastwest;whiteSpace=wrap;html=1;" parent="Ar0EWjiSAePKsgkhpnwZ-28" vertex="1">
          <mxGeometry y="26" width="160" height="26" as="geometry" />
        </mxCell>
        <mxCell id="Ar0EWjiSAePKsgkhpnwZ-30" value="InputStmt" style="swimlane;fontStyle=1;align=center;verticalAlign=top;childLayout=stackLayout;horizontal=1;startSize=26;horizontalStack=0;resizeParent=1;resizeParentMax=0;resizeLast=0;collapsible=1;marginBottom=0;whiteSpace=wrap;html=1;" parent="1" vertex="1">
          <mxGeometry x="1040" y="290" width="160" height="84" as="geometry" />
        </mxCell>
        <mxCell id="Ar0EWjiSAePKsgkhpnwZ-31" value="- var: Variable*" style="text;strokeColor=none;fillColor=none;align=left;verticalAlign=top;spacingLeft=4;spacingRight=4;overflow=hidden;rotatable=0;points=[[0,0.5],[1,0.5]];portConstraint=eastwest;whiteSpace=wrap;html=1;" parent="Ar0EWjiSAePKsgkhpnwZ-30" vertex="1">
          <mxGeometry y="26" width="160" height="24" as="geometry" />
        </mxCell>
        <mxCell id="Ar0EWjiSAePKsgkhpnwZ-32" value="" style="line;strokeWidth=1;fillColor=none;align=left;verticalAlign=middle;spacingTop=-1;spacingLeft=3;spacingRight=3;rotatable=0;labelPosition=right;points=[];portConstraint=eastwest;strokeColor=inherit;" parent="Ar0EWjiSAePKsgkhpnwZ-30" vertex="1">
          <mxGeometry y="50" width="160" height="8" as="geometry" />
        </mxCell>
        <mxCell id="Ar0EWjiSAePKsgkhpnwZ-33" value="+ accept(v: Visitor*): void" style="text;strokeColor=none;fillColor=none;align=left;verticalAlign=top;spacingLeft=4;spacingRight=4;overflow=hidden;rotatable=0;points=[[0,0.5],[1,0.5]];portConstraint=eastwest;whiteSpace=wrap;html=1;" parent="Ar0EWjiSAePKsgkhpnwZ-30" vertex="1">
          <mxGeometry y="58" width="160" height="26" as="geometry" />
        </mxCell>
        <mxCell id="o8EcyfVFpdOXNrYhHt9w-1" value="SetStmt" style="swimlane;fontStyle=1;align=center;verticalAlign=top;childLayout=stackLayout;horizontal=1;startSize=26;horizontalStack=0;resizeParent=1;resizeParentMax=0;resizeLast=0;collapsible=1;marginBottom=0;whiteSpace=wrap;html=1;" parent="1" vertex="1">
          <mxGeometry x="850" y="290" width="160" height="104" as="geometry" />
        </mxCell>
        <mxCell id="o8EcyfVFpdOXNrYhHt9w-2" value="- nexpr: Nexpr*&lt;br&gt;- var: Variable*" style="text;strokeColor=none;fillColor=none;align=left;verticalAlign=top;spacingLeft=4;spacingRight=4;overflow=hidden;rotatable=0;points=[[0,0.5],[1,0.5]];portConstraint=eastwest;whiteSpace=wrap;html=1;" parent="o8EcyfVFpdOXNrYhHt9w-1" vertex="1">
          <mxGeometry y="26" width="160" height="44" as="geometry" />
        </mxCell>
        <mxCell id="o8EcyfVFpdOXNrYhHt9w-3" value="" style="line;strokeWidth=1;fillColor=none;align=left;verticalAlign=middle;spacingTop=-1;spacingLeft=3;spacingRight=3;rotatable=0;labelPosition=right;points=[];portConstraint=eastwest;strokeColor=inherit;" parent="o8EcyfVFpdOXNrYhHt9w-1" vertex="1">
          <mxGeometry y="70" width="160" height="8" as="geometry" />
        </mxCell>
        <mxCell id="o8EcyfVFpdOXNrYhHt9w-4" value="+ accept(v: Visitor*): void" style="text;strokeColor=none;fillColor=none;align=left;verticalAlign=top;spacingLeft=4;spacingRight=4;overflow=hidden;rotatable=0;points=[[0,0.5],[1,0.5]];portConstraint=eastwest;whiteSpace=wrap;html=1;" parent="o8EcyfVFpdOXNrYhHt9w-1" vertex="1">
          <mxGeometry y="78" width="160" height="26" as="geometry" />
        </mxCell>
        <mxCell id="o8EcyfVFpdOXNrYhHt9w-5" value="PrintStmt" style="swimlane;fontStyle=1;align=center;verticalAlign=top;childLayout=stackLayout;horizontal=1;startSize=26;horizontalStack=0;resizeParent=1;resizeParentMax=0;resizeLast=0;collapsible=1;marginBottom=0;whiteSpace=wrap;html=1;" parent="1" vertex="1">
          <mxGeometry x="1230" y="290" width="160" height="84" as="geometry" />
        </mxCell>
        <mxCell id="o8EcyfVFpdOXNrYhHt9w-6" value="- nexpr: Nexpr*" style="text;strokeColor=none;fillColor=none;align=left;verticalAlign=top;spacingLeft=4;spacingRight=4;overflow=hidden;rotatable=0;points=[[0,0.5],[1,0.5]];portConstraint=eastwest;whiteSpace=wrap;html=1;" parent="o8EcyfVFpdOXNrYhHt9w-5" vertex="1">
          <mxGeometry y="26" width="160" height="24" as="geometry" />
        </mxCell>
        <mxCell id="o8EcyfVFpdOXNrYhHt9w-7" value="" style="line;strokeWidth=1;fillColor=none;align=left;verticalAlign=middle;spacingTop=-1;spacingLeft=3;spacingRight=3;rotatable=0;labelPosition=right;points=[];portConstraint=eastwest;strokeColor=inherit;" parent="o8EcyfVFpdOXNrYhHt9w-5" vertex="1">
          <mxGeometry y="50" width="160" height="8" as="geometry" />
        </mxCell>
        <mxCell id="o8EcyfVFpdOXNrYhHt9w-8" value="+ accept(v: Visitor*): void" style="text;strokeColor=none;fillColor=none;align=left;verticalAlign=top;spacingLeft=4;spacingRight=4;overflow=hidden;rotatable=0;points=[[0,0.5],[1,0.5]];portConstraint=eastwest;whiteSpace=wrap;html=1;" parent="o8EcyfVFpdOXNrYhHt9w-5" vertex="1">
          <mxGeometry y="58" width="160" height="26" as="geometry" />
        </mxCell>
        <mxCell id="o8EcyfVFpdOXNrYhHt9w-9" value="IfStmt" style="swimlane;fontStyle=1;align=center;verticalAlign=top;childLayout=stackLayout;horizontal=1;startSize=26;horizontalStack=0;resizeParent=1;resizeParentMax=0;resizeLast=0;collapsible=1;marginBottom=0;whiteSpace=wrap;html=1;" parent="1" vertex="1">
          <mxGeometry x="1420" y="290" width="160" height="114" as="geometry" />
        </mxCell>
        <mxCell id="o8EcyfVFpdOXNrYhHt9w-10" value="- bexpr: BoolExpr*&lt;br&gt;- stmt_block1: Block*&lt;br&gt;- stmt_block2: Block*" style="text;strokeColor=none;fillColor=none;align=left;verticalAlign=top;spacingLeft=4;spacingRight=4;overflow=hidden;rotatable=0;points=[[0,0.5],[1,0.5]];portConstraint=eastwest;whiteSpace=wrap;html=1;" parent="o8EcyfVFpdOXNrYhHt9w-9" vertex="1">
          <mxGeometry y="26" width="160" height="54" as="geometry" />
        </mxCell>
        <mxCell id="o8EcyfVFpdOXNrYhHt9w-11" value="" style="line;strokeWidth=1;fillColor=none;align=left;verticalAlign=middle;spacingTop=-1;spacingLeft=3;spacingRight=3;rotatable=0;labelPosition=right;points=[];portConstraint=eastwest;strokeColor=inherit;" parent="o8EcyfVFpdOXNrYhHt9w-9" vertex="1">
          <mxGeometry y="80" width="160" height="8" as="geometry" />
        </mxCell>
        <mxCell id="o8EcyfVFpdOXNrYhHt9w-12" value="+ accept(v: Visitor*): void" style="text;strokeColor=none;fillColor=none;align=left;verticalAlign=top;spacingLeft=4;spacingRight=4;overflow=hidden;rotatable=0;points=[[0,0.5],[1,0.5]];portConstraint=eastwest;whiteSpace=wrap;html=1;" parent="o8EcyfVFpdOXNrYhHt9w-9" vertex="1">
          <mxGeometry y="88" width="160" height="26" as="geometry" />
        </mxCell>
        <mxCell id="o8EcyfVFpdOXNrYhHt9w-13" value="WhileStmt" style="swimlane;fontStyle=1;align=center;verticalAlign=top;childLayout=stackLayout;horizontal=1;startSize=26;horizontalStack=0;resizeParent=1;resizeParentMax=0;resizeLast=0;collapsible=1;marginBottom=0;whiteSpace=wrap;html=1;" parent="1" vertex="1">
          <mxGeometry x="1620" y="290" width="160" height="104" as="geometry" />
        </mxCell>
        <mxCell id="o8EcyfVFpdOXNrYhHt9w-14" value="- bexpr: BoolExpr*&lt;br&gt;- stmt_block: Block*" style="text;strokeColor=none;fillColor=none;align=left;verticalAlign=top;spacingLeft=4;spacingRight=4;overflow=hidden;rotatable=0;points=[[0,0.5],[1,0.5]];portConstraint=eastwest;whiteSpace=wrap;html=1;" parent="o8EcyfVFpdOXNrYhHt9w-13" vertex="1">
          <mxGeometry y="26" width="160" height="44" as="geometry" />
        </mxCell>
        <mxCell id="o8EcyfVFpdOXNrYhHt9w-15" value="" style="line;strokeWidth=1;fillColor=none;align=left;verticalAlign=middle;spacingTop=-1;spacingLeft=3;spacingRight=3;rotatable=0;labelPosition=right;points=[];portConstraint=eastwest;strokeColor=inherit;" parent="o8EcyfVFpdOXNrYhHt9w-13" vertex="1">
          <mxGeometry y="70" width="160" height="8" as="geometry" />
        </mxCell>
        <mxCell id="o8EcyfVFpdOXNrYhHt9w-16" value="+ accept(v: Visitor*): void" style="text;strokeColor=none;fillColor=none;align=left;verticalAlign=top;spacingLeft=4;spacingRight=4;overflow=hidden;rotatable=0;points=[[0,0.5],[1,0.5]];portConstraint=eastwest;whiteSpace=wrap;html=1;" parent="o8EcyfVFpdOXNrYhHt9w-13" vertex="1">
          <mxGeometry y="78" width="160" height="26" as="geometry" />
        </mxCell>
        <mxCell id="o8EcyfVFpdOXNrYhHt9w-17" value="" style="endArrow=block;endSize=16;endFill=0;html=1;rounded=0;edgeStyle=orthogonalEdgeStyle;" parent="1" target="Ar0EWjiSAePKsgkhpnwZ-28" edge="1">
          <mxGeometry width="160" relative="1" as="geometry">
            <mxPoint x="890" y="290" as="sourcePoint" />
            <mxPoint x="1260" y="202" as="targetPoint" />
            <Array as="points">
              <mxPoint x="890" y="250" />
              <mxPoint x="1300" y="250" />
            </Array>
          </mxGeometry>
        </mxCell>
        <mxCell id="o8EcyfVFpdOXNrYhHt9w-18" value="" style="endArrow=block;endSize=16;endFill=0;html=1;rounded=0;edgeStyle=orthogonalEdgeStyle;" parent="1" target="Ar0EWjiSAePKsgkhpnwZ-28" edge="1">
          <mxGeometry x="-0.0021" width="160" relative="1" as="geometry">
            <mxPoint x="1080" y="290" as="sourcePoint" />
            <mxPoint x="1260" y="202" as="targetPoint" />
            <Array as="points">
              <mxPoint x="1080" y="250" />
              <mxPoint x="1300" y="250" />
            </Array>
            <mxPoint as="offset" />
          </mxGeometry>
        </mxCell>
        <mxCell id="o8EcyfVFpdOXNrYhHt9w-20" value="" style="endArrow=block;endSize=16;endFill=0;html=1;rounded=0;edgeStyle=orthogonalEdgeStyle;" parent="1" target="Ar0EWjiSAePKsgkhpnwZ-28" edge="1">
          <mxGeometry x="-0.0074" width="160" relative="1" as="geometry">
            <mxPoint x="1270" y="290" as="sourcePoint" />
            <mxPoint x="1260" y="202" as="targetPoint" />
            <Array as="points">
              <mxPoint x="1270" y="250" />
              <mxPoint x="1300" y="250" />
            </Array>
            <mxPoint as="offset" />
          </mxGeometry>
        </mxCell>
        <mxCell id="o8EcyfVFpdOXNrYhHt9w-21" value="" style="endArrow=block;endSize=16;endFill=0;html=1;rounded=0;edgeStyle=orthogonalEdgeStyle;" parent="1" edge="1">
          <mxGeometry width="160" relative="1" as="geometry">
            <mxPoint x="1540" y="290" as="sourcePoint" />
            <mxPoint x="1300" y="202" as="targetPoint" />
            <Array as="points">
              <mxPoint x="1540" y="250" />
              <mxPoint x="1300" y="250" />
            </Array>
          </mxGeometry>
        </mxCell>
        <mxCell id="o8EcyfVFpdOXNrYhHt9w-22" value="" style="endArrow=block;endSize=16;endFill=0;html=1;rounded=0;edgeStyle=orthogonalEdgeStyle;" parent="1" target="Ar0EWjiSAePKsgkhpnwZ-28" edge="1">
          <mxGeometry width="160" relative="1" as="geometry">
            <mxPoint x="1700" y="290" as="sourcePoint" />
            <mxPoint x="1300" y="232" as="targetPoint" />
            <Array as="points">
              <mxPoint x="1700" y="250" />
              <mxPoint x="1300" y="250" />
            </Array>
          </mxGeometry>
        </mxCell>
        <mxCell id="o8EcyfVFpdOXNrYhHt9w-27" value="&lt;span style=&quot;font-weight: normal;&quot;&gt;&lt;i&gt;BoolExpr&lt;/i&gt;&lt;/span&gt;" style="swimlane;fontStyle=1;align=center;verticalAlign=top;childLayout=stackLayout;horizontal=1;startSize=26;horizontalStack=0;resizeParent=1;resizeParentMax=0;resizeLast=0;collapsible=1;marginBottom=0;whiteSpace=wrap;html=1;" parent="1" vertex="1">
          <mxGeometry x="1790" y="600" width="160" height="52" as="geometry">
            <mxRectangle x="290" y="140" width="90" height="30" as="alternateBounds" />
          </mxGeometry>
        </mxCell>
        <mxCell id="o8EcyfVFpdOXNrYhHt9w-28" value="&lt;i&gt;+ accept(v: Visitor*): void&lt;/i&gt;" style="text;strokeColor=none;fillColor=none;align=left;verticalAlign=top;spacingLeft=4;spacingRight=4;overflow=hidden;rotatable=0;points=[[0,0.5],[1,0.5]];portConstraint=eastwest;whiteSpace=wrap;html=1;" parent="o8EcyfVFpdOXNrYhHt9w-27" vertex="1">
          <mxGeometry y="26" width="160" height="26" as="geometry" />
        </mxCell>
        <mxCell id="o8EcyfVFpdOXNrYhHt9w-29" value="BoolConst" style="swimlane;fontStyle=1;align=center;verticalAlign=top;childLayout=stackLayout;horizontal=1;startSize=26;horizontalStack=0;resizeParent=1;resizeParentMax=0;resizeLast=0;collapsible=1;marginBottom=0;whiteSpace=wrap;html=1;" parent="1" vertex="1">
          <mxGeometry x="1410" y="740" width="310" height="140" as="geometry" />
        </mxCell>
        <mxCell id="o8EcyfVFpdOXNrYhHt9w-30" value="+ BoolCode: enum = { TRUE, FALSE, NULL_VAL }&lt;br&gt;- bconst: BoolCode" style="text;strokeColor=none;fillColor=none;align=left;verticalAlign=top;spacingLeft=4;spacingRight=4;overflow=hidden;rotatable=0;points=[[0,0.5],[1,0.5]];portConstraint=eastwest;whiteSpace=wrap;html=1;" parent="o8EcyfVFpdOXNrYhHt9w-29" vertex="1">
          <mxGeometry y="26" width="310" height="44" as="geometry" />
        </mxCell>
        <mxCell id="o8EcyfVFpdOXNrYhHt9w-31" value="" style="line;strokeWidth=1;fillColor=none;align=left;verticalAlign=middle;spacingTop=-1;spacingLeft=3;spacingRight=3;rotatable=0;labelPosition=right;points=[];portConstraint=eastwest;strokeColor=inherit;" parent="o8EcyfVFpdOXNrYhHt9w-29" vertex="1">
          <mxGeometry y="70" width="310" height="10" as="geometry" />
        </mxCell>
        <mxCell id="o8EcyfVFpdOXNrYhHt9w-32" value="+ accept(v: Visitor*): void&lt;br&gt;+ string2BoolCode(s: std::string): static BoolCode&lt;br&gt;+ boolCode2String(bcode: BoolCode): static std::string" style="text;strokeColor=none;fillColor=none;align=left;verticalAlign=top;spacingLeft=4;spacingRight=4;overflow=hidden;rotatable=0;points=[[0,0.5],[1,0.5]];portConstraint=eastwest;whiteSpace=wrap;html=1;" parent="o8EcyfVFpdOXNrYhHt9w-29" vertex="1">
          <mxGeometry y="80" width="310" height="60" as="geometry" />
        </mxCell>
        <mxCell id="o8EcyfVFpdOXNrYhHt9w-33" value="BoolOp" style="swimlane;fontStyle=1;align=center;verticalAlign=top;childLayout=stackLayout;horizontal=1;startSize=26;horizontalStack=0;resizeParent=1;resizeParentMax=0;resizeLast=0;collapsible=1;marginBottom=0;whiteSpace=wrap;html=1;" parent="1" vertex="1">
          <mxGeometry x="1800" y="740" width="310" height="180" as="geometry" />
        </mxCell>
        <mxCell id="o8EcyfVFpdOXNrYhHt9w-34" value="+ BopCode: enum = { AND, OR, NOT, NULL_VAL }&lt;br&gt;- b_opcode: BopCode&lt;br&gt;- f_bexpr: BoolExpr*&lt;br&gt;- s_bexpr: BoolExpr*" style="text;strokeColor=none;fillColor=none;align=left;verticalAlign=top;spacingLeft=4;spacingRight=4;overflow=hidden;rotatable=0;points=[[0,0.5],[1,0.5]];portConstraint=eastwest;whiteSpace=wrap;html=1;" parent="o8EcyfVFpdOXNrYhHt9w-33" vertex="1">
          <mxGeometry y="26" width="310" height="84" as="geometry" />
        </mxCell>
        <mxCell id="o8EcyfVFpdOXNrYhHt9w-35" value="" style="line;strokeWidth=1;fillColor=none;align=left;verticalAlign=middle;spacingTop=-1;spacingLeft=3;spacingRight=3;rotatable=0;labelPosition=right;points=[];portConstraint=eastwest;strokeColor=inherit;" parent="o8EcyfVFpdOXNrYhHt9w-33" vertex="1">
          <mxGeometry y="110" width="310" height="8" as="geometry" />
        </mxCell>
        <mxCell id="o8EcyfVFpdOXNrYhHt9w-36" value="+ accept(v: Visitor): void&lt;br&gt;+ string2BopCode(s: std::string): static BopCode&lt;br&gt;+ bopCode2String(bcode: BopCode): static std::string" style="text;strokeColor=none;fillColor=none;align=left;verticalAlign=top;spacingLeft=4;spacingRight=4;overflow=hidden;rotatable=0;points=[[0,0.5],[1,0.5]];portConstraint=eastwest;whiteSpace=wrap;html=1;" parent="o8EcyfVFpdOXNrYhHt9w-33" vertex="1">
          <mxGeometry y="118" width="310" height="62" as="geometry" />
        </mxCell>
        <mxCell id="o8EcyfVFpdOXNrYhHt9w-37" value="" style="endArrow=block;endSize=16;endFill=0;html=1;rounded=0;exitX=0.5;exitY=0;exitDx=0;exitDy=0;edgeStyle=orthogonalEdgeStyle;" parent="1" source="o8EcyfVFpdOXNrYhHt9w-33" target="o8EcyfVFpdOXNrYhHt9w-27" edge="1">
          <mxGeometry x="-0.7727" width="160" relative="1" as="geometry">
            <mxPoint x="1880" y="750" as="sourcePoint" />
            <mxPoint x="1990" y="700" as="targetPoint" />
            <mxPoint as="offset" />
            <Array as="points">
              <mxPoint x="1955" y="700" />
              <mxPoint x="1870" y="700" />
            </Array>
          </mxGeometry>
        </mxCell>
        <mxCell id="o8EcyfVFpdOXNrYhHt9w-38" value="" style="endArrow=block;endSize=16;endFill=0;html=1;rounded=0;exitX=0.5;exitY=0;exitDx=0;exitDy=0;edgeStyle=orthogonalEdgeStyle;" parent="1" source="o8EcyfVFpdOXNrYhHt9w-29" target="o8EcyfVFpdOXNrYhHt9w-27" edge="1">
          <mxGeometry width="160" relative="1" as="geometry">
            <mxPoint x="1580" y="760" as="sourcePoint" />
            <mxPoint x="1880.3600000000001" y="669.998" as="targetPoint" />
            <Array as="points">
              <mxPoint x="1565" y="700" />
              <mxPoint x="1870" y="700" />
            </Array>
          </mxGeometry>
        </mxCell>
        <mxCell id="o8EcyfVFpdOXNrYhHt9w-39" value="RelOp" style="swimlane;fontStyle=1;align=center;verticalAlign=top;childLayout=stackLayout;horizontal=1;startSize=26;horizontalStack=0;resizeParent=1;resizeParentMax=0;resizeLast=0;collapsible=1;marginBottom=0;whiteSpace=wrap;html=1;" parent="1" vertex="1">
          <mxGeometry x="2195" y="740" width="350" height="170" as="geometry" />
        </mxCell>
        <mxCell id="o8EcyfVFpdOXNrYhHt9w-40" value="+ RelOpCode: enum = { LT, GT, EQ, NULL_VAL }&lt;br&gt;- r_opcode: RelOpCode&lt;br&gt;- first_nexpr: NumExpr*&lt;br&gt;- second_nexpr: NumExpr*" style="text;strokeColor=none;fillColor=none;align=left;verticalAlign=top;spacingLeft=4;spacingRight=4;overflow=hidden;rotatable=0;points=[[0,0.5],[1,0.5]];portConstraint=eastwest;whiteSpace=wrap;html=1;" parent="o8EcyfVFpdOXNrYhHt9w-39" vertex="1">
          <mxGeometry y="26" width="350" height="74" as="geometry" />
        </mxCell>
        <mxCell id="o8EcyfVFpdOXNrYhHt9w-41" value="" style="line;strokeWidth=1;fillColor=none;align=left;verticalAlign=middle;spacingTop=-1;spacingLeft=3;spacingRight=3;rotatable=0;labelPosition=right;points=[];portConstraint=eastwest;strokeColor=inherit;" parent="o8EcyfVFpdOXNrYhHt9w-39" vertex="1">
          <mxGeometry y="100" width="350" height="8" as="geometry" />
        </mxCell>
        <mxCell id="o8EcyfVFpdOXNrYhHt9w-42" value="+ accept(v: Visitor*): void&lt;br&gt;+ string2RelOp(s: std::string): static RelOpCode&lt;br&gt;+ relOpCode2String(r_opcode: RelOpCode): static std::string" style="text;strokeColor=none;fillColor=none;align=left;verticalAlign=top;spacingLeft=4;spacingRight=4;overflow=hidden;rotatable=0;points=[[0,0.5],[1,0.5]];portConstraint=eastwest;whiteSpace=wrap;html=1;" parent="o8EcyfVFpdOXNrYhHt9w-39" vertex="1">
          <mxGeometry y="108" width="350" height="62" as="geometry" />
        </mxCell>
        <mxCell id="o8EcyfVFpdOXNrYhHt9w-43" value="" style="endArrow=block;endSize=16;endFill=0;html=1;rounded=0;edgeStyle=orthogonalEdgeStyle;" parent="1" source="o8EcyfVFpdOXNrYhHt9w-39" target="o8EcyfVFpdOXNrYhHt9w-27" edge="1">
          <mxGeometry width="160" relative="1" as="geometry">
            <mxPoint x="1760" y="740" as="sourcePoint" />
            <mxPoint x="1920" y="740" as="targetPoint" />
            <Array as="points">
              <mxPoint x="2370" y="700" />
              <mxPoint x="1870" y="700" />
            </Array>
          </mxGeometry>
        </mxCell>
        <mxCell id="o8EcyfVFpdOXNrYhHt9w-44" value="BoolExprManager" style="swimlane;fontStyle=1;align=center;verticalAlign=top;childLayout=stackLayout;horizontal=1;startSize=26;horizontalStack=0;resizeParent=1;resizeParentMax=0;resizeLast=0;collapsible=1;marginBottom=0;whiteSpace=wrap;html=1;" parent="1" vertex="1">
          <mxGeometry x="2230" y="502" width="530" height="150" as="geometry" />
        </mxCell>
        <mxCell id="o8EcyfVFpdOXNrYhHt9w-45" value="- bool_expr_allocateed: std::vector&amp;lt;BoolExpr*&amp;gt;" style="text;strokeColor=none;fillColor=none;align=left;verticalAlign=top;spacingLeft=4;spacingRight=4;overflow=hidden;rotatable=0;points=[[0,0.5],[1,0.5]];portConstraint=eastwest;whiteSpace=wrap;html=1;" parent="o8EcyfVFpdOXNrYhHt9w-44" vertex="1">
          <mxGeometry y="26" width="530" height="34" as="geometry" />
        </mxCell>
        <mxCell id="o8EcyfVFpdOXNrYhHt9w-46" value="" style="line;strokeWidth=1;fillColor=none;align=left;verticalAlign=middle;spacingTop=-1;spacingLeft=3;spacingRight=3;rotatable=0;labelPosition=right;points=[];portConstraint=eastwest;strokeColor=inherit;" parent="o8EcyfVFpdOXNrYhHt9w-44" vertex="1">
          <mxGeometry y="60" width="530" height="8" as="geometry" />
        </mxCell>
        <mxCell id="o8EcyfVFpdOXNrYhHt9w-47" value="+ makeRelOp(rop: RelOp::RelOpCode, f_expr: NumExpr*, s_expr: NumExpr*): BoolExpr*&lt;br&gt;+ makeBoolConst(bcode: BoolOp::BopCode, f_bexpr: BoolExpr*, s_bexpr: BoolExpr*): BoolExpr*&lt;br&gt;- makeBoolOp(bcode: BoolOp::BopCode, f_bexpr: BoolExpr*, s_bexpr: BoolExpr*): BoolExpr*&lt;br&gt;+ clear_memory(): void" style="text;strokeColor=none;fillColor=none;align=left;verticalAlign=top;spacingLeft=4;spacingRight=4;overflow=hidden;rotatable=0;points=[[0,0.5],[1,0.5]];portConstraint=eastwest;whiteSpace=wrap;html=1;" parent="o8EcyfVFpdOXNrYhHt9w-44" vertex="1">
          <mxGeometry y="68" width="530" height="82" as="geometry" />
        </mxCell>
        <mxCell id="o8EcyfVFpdOXNrYhHt9w-48" value="NumExprManager" style="swimlane;fontStyle=1;align=center;verticalAlign=top;childLayout=stackLayout;horizontal=1;startSize=26;horizontalStack=0;resizeParent=1;resizeParentMax=0;resizeLast=0;collapsible=1;marginBottom=0;whiteSpace=wrap;html=1;" parent="1" vertex="1">
          <mxGeometry x="90" y="500" width="440" height="130" as="geometry" />
        </mxCell>
        <mxCell id="o8EcyfVFpdOXNrYhHt9w-49" value="- numExpr_allocated: std::vector&amp;lt;NumExpr*&amp;gt;" style="text;strokeColor=none;fillColor=none;align=left;verticalAlign=top;spacingLeft=4;spacingRight=4;overflow=hidden;rotatable=0;points=[[0,0.5],[1,0.5]];portConstraint=eastwest;whiteSpace=wrap;html=1;" parent="o8EcyfVFpdOXNrYhHt9w-48" vertex="1">
          <mxGeometry y="26" width="440" height="24" as="geometry" />
        </mxCell>
        <mxCell id="o8EcyfVFpdOXNrYhHt9w-50" value="" style="line;strokeWidth=1;fillColor=none;align=left;verticalAlign=middle;spacingTop=-1;spacingLeft=3;spacingRight=3;rotatable=0;labelPosition=right;points=[];portConstraint=eastwest;strokeColor=inherit;" parent="o8EcyfVFpdOXNrYhHt9w-48" vertex="1">
          <mxGeometry y="50" width="440" height="8" as="geometry" />
        </mxCell>
        <mxCell id="o8EcyfVFpdOXNrYhHt9w-51" value="+ makeOperator(op: Operator::OpCode, l: NumExpr*, r: NumExpr*): NumExpr*&lt;br&gt;+ makeNumber(v: int64_t): NumExpr*&lt;br&gt;+ makeVariable(id: std::string): NumExpr*&lt;br&gt;+ clear_memory(): void" style="text;strokeColor=none;fillColor=none;align=left;verticalAlign=top;spacingLeft=4;spacingRight=4;overflow=hidden;rotatable=0;points=[[0,0.5],[1,0.5]];portConstraint=eastwest;whiteSpace=wrap;html=1;" parent="o8EcyfVFpdOXNrYhHt9w-48" vertex="1">
          <mxGeometry y="58" width="440" height="72" as="geometry" />
        </mxCell>
        <mxCell id="o8EcyfVFpdOXNrYhHt9w-52" value="Block" style="swimlane;fontStyle=1;align=center;verticalAlign=top;childLayout=stackLayout;horizontal=1;startSize=26;horizontalStack=0;resizeParent=1;resizeParentMax=0;resizeLast=0;collapsible=1;marginBottom=0;whiteSpace=wrap;html=1;" parent="1" vertex="1">
          <mxGeometry x="765" y="-150" width="190" height="86" as="geometry" />
        </mxCell>
        <mxCell id="o8EcyfVFpdOXNrYhHt9w-53" value="- stmts: std::vector&amp;lt;Statement*&amp;gt;" style="text;strokeColor=none;fillColor=none;align=left;verticalAlign=top;spacingLeft=4;spacingRight=4;overflow=hidden;rotatable=0;points=[[0,0.5],[1,0.5]];portConstraint=eastwest;whiteSpace=wrap;html=1;" parent="o8EcyfVFpdOXNrYhHt9w-52" vertex="1">
          <mxGeometry y="26" width="190" height="26" as="geometry" />
        </mxCell>
        <mxCell id="o8EcyfVFpdOXNrYhHt9w-54" value="" style="line;strokeWidth=1;fillColor=none;align=left;verticalAlign=middle;spacingTop=-1;spacingLeft=3;spacingRight=3;rotatable=0;labelPosition=right;points=[];portConstraint=eastwest;strokeColor=inherit;" parent="o8EcyfVFpdOXNrYhHt9w-52" vertex="1">
          <mxGeometry y="52" width="190" height="8" as="geometry" />
        </mxCell>
        <mxCell id="o8EcyfVFpdOXNrYhHt9w-55" value="+ accept(v: Visitor*): void" style="text;strokeColor=none;fillColor=none;align=left;verticalAlign=top;spacingLeft=4;spacingRight=4;overflow=hidden;rotatable=0;points=[[0,0.5],[1,0.5]];portConstraint=eastwest;whiteSpace=wrap;html=1;" parent="o8EcyfVFpdOXNrYhHt9w-52" vertex="1">
          <mxGeometry y="60" width="190" height="26" as="geometry" />
        </mxCell>
        <mxCell id="o8EcyfVFpdOXNrYhHt9w-56" value="Program" style="swimlane;fontStyle=1;align=center;verticalAlign=top;childLayout=stackLayout;horizontal=1;startSize=26;horizontalStack=0;resizeParent=1;resizeParentMax=0;resizeLast=0;collapsible=1;marginBottom=0;whiteSpace=wrap;html=1;" parent="1" vertex="1">
          <mxGeometry x="735" y="-340" width="250" height="124" as="geometry" />
        </mxCell>
        <mxCell id="o8EcyfVFpdOXNrYhHt9w-57" value="- blk: Block*&lt;br&gt;- is_not_empty: int&lt;br&gt;+ NOT_EMPTY_VAL: static constexpr int = 1&lt;br&gt;+ EMPTY_VAL: static constexpr int = 0" style="text;strokeColor=none;fillColor=none;align=left;verticalAlign=top;spacingLeft=4;spacingRight=4;overflow=hidden;rotatable=0;points=[[0,0.5],[1,0.5]];portConstraint=eastwest;whiteSpace=wrap;html=1;" parent="o8EcyfVFpdOXNrYhHt9w-56" vertex="1">
          <mxGeometry y="26" width="250" height="64" as="geometry" />
        </mxCell>
        <mxCell id="o8EcyfVFpdOXNrYhHt9w-58" value="" style="line;strokeWidth=1;fillColor=none;align=left;verticalAlign=middle;spacingTop=-1;spacingLeft=3;spacingRight=3;rotatable=0;labelPosition=right;points=[];portConstraint=eastwest;strokeColor=inherit;" parent="o8EcyfVFpdOXNrYhHt9w-56" vertex="1">
          <mxGeometry y="90" width="250" height="8" as="geometry" />
        </mxCell>
        <mxCell id="o8EcyfVFpdOXNrYhHt9w-59" value="+ accept(v: Visitor*): void" style="text;strokeColor=none;fillColor=none;align=left;verticalAlign=top;spacingLeft=4;spacingRight=4;overflow=hidden;rotatable=0;points=[[0,0.5],[1,0.5]];portConstraint=eastwest;whiteSpace=wrap;html=1;" parent="o8EcyfVFpdOXNrYhHt9w-56" vertex="1">
          <mxGeometry y="98" width="250" height="26" as="geometry" />
        </mxCell>
        <mxCell id="o8EcyfVFpdOXNrYhHt9w-60" value="" style="endArrow=diamondThin;endFill=0;endSize=24;html=1;rounded=0;startArrow=open;startFill=0;" parent="1" source="o8EcyfVFpdOXNrYhHt9w-52" target="o8EcyfVFpdOXNrYhHt9w-56" edge="1">
          <mxGeometry width="160" relative="1" as="geometry">
            <mxPoint x="720" y="-140" as="sourcePoint" />
            <mxPoint x="880" y="-140" as="targetPoint" />
          </mxGeometry>
        </mxCell>
        <mxCell id="o8EcyfVFpdOXNrYhHt9w-61" value="" style="endArrow=diamondThin;endFill=0;endSize=24;html=1;rounded=0;edgeStyle=orthogonalEdgeStyle;startArrow=open;startFill=0;" parent="1" source="Ar0EWjiSAePKsgkhpnwZ-28" target="o8EcyfVFpdOXNrYhHt9w-52" edge="1">
          <mxGeometry width="160" relative="1" as="geometry">
            <mxPoint x="730" y="40" as="sourcePoint" />
            <mxPoint x="890" y="40" as="targetPoint" />
            <Array as="points">
              <mxPoint x="1300" y="-10" />
              <mxPoint x="860" y="-10" />
            </Array>
          </mxGeometry>
        </mxCell>
        <mxCell id="o8EcyfVFpdOXNrYhHt9w-62" value="" style="endArrow=diamondThin;endFill=0;endSize=24;html=1;rounded=0;edgeStyle=orthogonalEdgeStyle;startArrow=open;startFill=0;" parent="1" source="Ar0EWjiSAePKsgkhpnwZ-1" target="o8EcyfVFpdOXNrYhHt9w-48" edge="1">
          <mxGeometry width="160" relative="1" as="geometry">
            <mxPoint x="670" y="880" as="sourcePoint" />
            <mxPoint x="830" y="880" as="targetPoint" />
            <Array as="points">
              <mxPoint x="715" y="610" />
              <mxPoint x="715" y="565" />
            </Array>
          </mxGeometry>
        </mxCell>
        <mxCell id="o8EcyfVFpdOXNrYhHt9w-63" value="" style="endArrow=diamondThin;endFill=0;endSize=24;html=1;rounded=0;edgeStyle=orthogonalEdgeStyle;startArrow=open;startFill=0;" parent="1" source="Ar0EWjiSAePKsgkhpnwZ-1" target="Ar0EWjiSAePKsgkhpnwZ-5" edge="1">
          <mxGeometry width="160" relative="1" as="geometry">
            <mxPoint x="850" y="860" as="sourcePoint" />
            <mxPoint x="1010" y="860" as="targetPoint" />
            <Array as="points">
              <mxPoint x="640" y="640" />
            </Array>
          </mxGeometry>
        </mxCell>
        <mxCell id="o8EcyfVFpdOXNrYhHt9w-64" value="" style="endArrow=diamondThin;endFill=0;endSize=24;html=1;rounded=0;edgeStyle=orthogonalEdgeStyle;startArrow=open;startFill=0;" parent="1" source="o8EcyfVFpdOXNrYhHt9w-27" target="o8EcyfVFpdOXNrYhHt9w-44" edge="1">
          <mxGeometry width="160" relative="1" as="geometry">
            <mxPoint x="2110" y="570" as="sourcePoint" />
            <mxPoint x="2270" y="570" as="targetPoint" />
          </mxGeometry>
        </mxCell>
        <mxCell id="o8EcyfVFpdOXNrYhHt9w-65" value="" style="endArrow=diamondThin;endFill=0;endSize=24;html=1;rounded=0;edgeStyle=orthogonalEdgeStyle;startArrow=open;startFill=0;" parent="1" source="Ar0EWjiSAePKsgkhpnwZ-1" target="o8EcyfVFpdOXNrYhHt9w-1" edge="1">
          <mxGeometry width="160" relative="1" as="geometry">
            <mxPoint x="1090" y="530" as="sourcePoint" />
            <mxPoint x="1250" y="530" as="targetPoint" />
            <Array as="points">
              <mxPoint x="930" y="540" />
              <mxPoint x="930" y="540" />
            </Array>
          </mxGeometry>
        </mxCell>
        <mxCell id="o8EcyfVFpdOXNrYhHt9w-67" value="" style="endArrow=diamondThin;endFill=0;endSize=24;html=1;rounded=0;edgeStyle=orthogonalEdgeStyle;startArrow=open;startFill=0;" parent="1" source="Ar0EWjiSAePKsgkhpnwZ-19" target="o8EcyfVFpdOXNrYhHt9w-1" edge="1">
          <mxGeometry width="160" relative="1" as="geometry">
            <mxPoint x="1090" y="530" as="sourcePoint" />
            <mxPoint x="1250" y="530" as="targetPoint" />
            <Array as="points">
              <mxPoint x="1170" y="500" />
              <mxPoint x="960" y="500" />
            </Array>
          </mxGeometry>
        </mxCell>
        <mxCell id="o8EcyfVFpdOXNrYhHt9w-68" value="" style="endArrow=diamondThin;endFill=0;endSize=24;html=1;rounded=0;edgeStyle=orthogonalEdgeStyle;" parent="1" source="Ar0EWjiSAePKsgkhpnwZ-19" target="Ar0EWjiSAePKsgkhpnwZ-30" edge="1">
          <mxGeometry width="160" relative="1" as="geometry">
            <mxPoint x="1230" y="570" as="sourcePoint" />
            <mxPoint x="1390" y="570" as="targetPoint" />
            <Array as="points">
              <mxPoint x="1170" y="450" />
              <mxPoint x="1170" y="450" />
            </Array>
          </mxGeometry>
        </mxCell>
        <mxCell id="o8EcyfVFpdOXNrYhHt9w-69" value="" style="endArrow=diamondThin;endFill=0;endSize=24;html=1;rounded=0;edgeStyle=orthogonalEdgeStyle;startArrow=open;startFill=0;" parent="1" source="Ar0EWjiSAePKsgkhpnwZ-1" target="o8EcyfVFpdOXNrYhHt9w-5" edge="1">
          <mxGeometry width="160" relative="1" as="geometry">
            <mxPoint x="1230" y="570" as="sourcePoint" />
            <mxPoint x="1390" y="570" as="targetPoint" />
            <Array as="points">
              <mxPoint x="930" y="540" />
              <mxPoint x="1310" y="540" />
            </Array>
          </mxGeometry>
        </mxCell>
        <mxCell id="o8EcyfVFpdOXNrYhHt9w-70" value="" style="endArrow=diamondThin;endFill=0;endSize=24;html=1;rounded=0;edgeStyle=orthogonalEdgeStyle;" parent="1" source="o8EcyfVFpdOXNrYhHt9w-27" target="o8EcyfVFpdOXNrYhHt9w-9" edge="1">
          <mxGeometry width="160" relative="1" as="geometry">
            <mxPoint x="1620" y="570" as="sourcePoint" />
            <mxPoint x="1780" y="570" as="targetPoint" />
            <Array as="points">
              <mxPoint x="1870" y="520" />
              <mxPoint x="1500" y="520" />
            </Array>
          </mxGeometry>
        </mxCell>
        <mxCell id="o8EcyfVFpdOXNrYhHt9w-71" value="" style="endArrow=diamondThin;endFill=0;endSize=24;html=1;rounded=0;edgeStyle=orthogonalEdgeStyle;startArrow=open;startFill=0;" parent="1" source="o8EcyfVFpdOXNrYhHt9w-52" target="o8EcyfVFpdOXNrYhHt9w-9" edge="1">
          <mxGeometry width="160" relative="1" as="geometry">
            <mxPoint x="1180" y="90" as="sourcePoint" />
            <mxPoint x="1340" y="90" as="targetPoint" />
            <Array as="points">
              <mxPoint x="1500" y="-140" />
            </Array>
          </mxGeometry>
        </mxCell>
        <mxCell id="o8EcyfVFpdOXNrYhHt9w-73" value="" style="endArrow=diamondThin;endFill=0;endSize=24;html=1;rounded=0;edgeStyle=orthogonalEdgeStyle;startArrow=open;startFill=0;" parent="1" source="o8EcyfVFpdOXNrYhHt9w-27" target="o8EcyfVFpdOXNrYhHt9w-13" edge="1">
          <mxGeometry width="160" relative="1" as="geometry">
            <mxPoint x="1790" y="450" as="sourcePoint" />
            <mxPoint x="1950" y="450" as="targetPoint" />
            <Array as="points">
              <mxPoint x="1870" y="520" />
              <mxPoint x="1700" y="520" />
            </Array>
          </mxGeometry>
        </mxCell>
        <mxCell id="o8EcyfVFpdOXNrYhHt9w-74" value="" style="endArrow=diamondThin;endFill=0;endSize=24;html=1;rounded=0;edgeStyle=orthogonalEdgeStyle;startArrow=open;startFill=0;" parent="1" source="o8EcyfVFpdOXNrYhHt9w-52" target="o8EcyfVFpdOXNrYhHt9w-13" edge="1">
          <mxGeometry width="160" relative="1" as="geometry">
            <mxPoint x="1430" y="180" as="sourcePoint" />
            <mxPoint x="1590" y="180" as="targetPoint" />
            <Array as="points">
              <mxPoint x="1660" y="-100" />
            </Array>
          </mxGeometry>
        </mxCell>
        <mxCell id="o8EcyfVFpdOXNrYhHt9w-75" value="" style="endArrow=diamondThin;endFill=0;endSize=24;html=1;rounded=0;edgeStyle=orthogonalEdgeStyle;startArrow=open;startFill=0;" parent="1" source="o8EcyfVFpdOXNrYhHt9w-27" target="o8EcyfVFpdOXNrYhHt9w-33" edge="1">
          <mxGeometry width="160" relative="1" as="geometry">
            <mxPoint x="1800" y="800" as="sourcePoint" />
            <mxPoint x="1960" y="800" as="targetPoint" />
            <Array as="points">
              <mxPoint x="1930" y="680" />
              <mxPoint x="2000" y="680" />
            </Array>
          </mxGeometry>
        </mxCell>
        <mxCell id="o8EcyfVFpdOXNrYhHt9w-76" value="" style="endArrow=diamondThin;endFill=0;endSize=24;html=1;rounded=0;edgeStyle=orthogonalEdgeStyle;startArrow=open;startFill=0;" parent="1" source="Ar0EWjiSAePKsgkhpnwZ-1" target="o8EcyfVFpdOXNrYhHt9w-39" edge="1">
          <mxGeometry width="160" relative="1" as="geometry">
            <mxPoint x="1490" y="830" as="sourcePoint" />
            <mxPoint x="1650" y="830" as="targetPoint" />
            <Array as="points">
              <mxPoint x="880" y="640" />
              <mxPoint x="880" y="960" />
              <mxPoint x="2370" y="960" />
            </Array>
          </mxGeometry>
        </mxCell>
        <mxCell id="o8EcyfVFpdOXNrYhHt9w-77" value="1" style="text;html=1;align=center;verticalAlign=middle;resizable=0;points=[];autosize=1;strokeColor=none;fillColor=none;" parent="1" vertex="1">
          <mxGeometry x="860" y="-216" width="30" height="30" as="geometry" />
        </mxCell>
        <mxCell id="o8EcyfVFpdOXNrYhHt9w-78" value="1" style="text;html=1;align=center;verticalAlign=middle;resizable=0;points=[];autosize=1;strokeColor=none;fillColor=none;" parent="1" vertex="1">
          <mxGeometry x="860" y="-64" width="30" height="30" as="geometry" />
        </mxCell>
        <mxCell id="o8EcyfVFpdOXNrYhHt9w-81" value="1" style="text;html=1;align=center;verticalAlign=middle;resizable=0;points=[];autosize=1;strokeColor=none;fillColor=none;" parent="1" vertex="1">
          <mxGeometry x="1460" y="260" width="30" height="30" as="geometry" />
        </mxCell>
        <mxCell id="o8EcyfVFpdOXNrYhHt9w-82" value="1" style="text;html=1;align=center;verticalAlign=middle;resizable=0;points=[];autosize=1;strokeColor=none;fillColor=none;" parent="1" vertex="1">
          <mxGeometry x="1500" y="404" width="30" height="30" as="geometry" />
        </mxCell>
        <mxCell id="o8EcyfVFpdOXNrYhHt9w-83" value="1" style="text;html=1;align=center;verticalAlign=middle;resizable=0;points=[];autosize=1;strokeColor=none;fillColor=none;" parent="1" vertex="1">
          <mxGeometry x="1700" y="394" width="30" height="30" as="geometry" />
        </mxCell>
        <mxCell id="o8EcyfVFpdOXNrYhHt9w-84" value="1" style="text;html=1;align=center;verticalAlign=middle;resizable=0;points=[];autosize=1;strokeColor=none;fillColor=none;" parent="1" vertex="1">
          <mxGeometry x="1624" y="260" width="30" height="30" as="geometry" />
        </mxCell>
        <mxCell id="o8EcyfVFpdOXNrYhHt9w-85" value="n" style="text;html=1;align=center;verticalAlign=middle;resizable=0;points=[];autosize=1;strokeColor=none;fillColor=none;" parent="1" vertex="1">
          <mxGeometry x="1950" y="600" width="30" height="30" as="geometry" />
        </mxCell>
        <mxCell id="o8EcyfVFpdOXNrYhHt9w-86" value="2" style="text;html=1;align=center;verticalAlign=middle;resizable=0;points=[];autosize=1;strokeColor=none;fillColor=none;" parent="1" vertex="1">
          <mxGeometry x="1930" y="652" width="30" height="30" as="geometry" />
        </mxCell>
        <mxCell id="o8EcyfVFpdOXNrYhHt9w-87" value="1" style="text;html=1;align=center;verticalAlign=middle;resizable=0;points=[];autosize=1;strokeColor=none;fillColor=none;" parent="1" vertex="1">
          <mxGeometry x="2380" y="910" width="30" height="30" as="geometry" />
        </mxCell>
        <mxCell id="o8EcyfVFpdOXNrYhHt9w-88" value="1" style="text;html=1;align=center;verticalAlign=middle;resizable=0;points=[];autosize=1;strokeColor=none;fillColor=none;" parent="1" vertex="1">
          <mxGeometry x="870" y="611" width="30" height="30" as="geometry" />
        </mxCell>
        <mxCell id="o8EcyfVFpdOXNrYhHt9w-89" value="n" style="text;html=1;align=center;verticalAlign=middle;resizable=0;points=[];autosize=1;strokeColor=none;fillColor=none;" parent="1" vertex="1">
          <mxGeometry x="870" y="578" width="30" height="30" as="geometry" />
        </mxCell>
        <mxCell id="o8EcyfVFpdOXNrYhHt9w-90" value="1" style="text;html=1;align=center;verticalAlign=middle;resizable=0;points=[];autosize=1;strokeColor=none;fillColor=none;" parent="1" vertex="1">
          <mxGeometry x="890" y="394" width="30" height="30" as="geometry" />
        </mxCell>
        <mxCell id="o8EcyfVFpdOXNrYhHt9w-91" value="1" style="text;html=1;align=center;verticalAlign=middle;resizable=0;points=[];autosize=1;strokeColor=none;fillColor=none;" parent="1" vertex="1">
          <mxGeometry x="965" y="394" width="30" height="30" as="geometry" />
        </mxCell>
        <mxCell id="o8EcyfVFpdOXNrYhHt9w-92" value="1" style="text;html=1;align=center;verticalAlign=middle;resizable=0;points=[];autosize=1;strokeColor=none;fillColor=none;" parent="1" vertex="1">
          <mxGeometry x="1130" y="374" width="30" height="30" as="geometry" />
        </mxCell>
        <mxCell id="o8EcyfVFpdOXNrYhHt9w-93" value="1" style="text;html=1;align=center;verticalAlign=middle;resizable=0;points=[];autosize=1;strokeColor=none;fillColor=none;" parent="1" vertex="1">
          <mxGeometry x="1270" y="374" width="30" height="30" as="geometry" />
        </mxCell>
        <mxCell id="o8EcyfVFpdOXNrYhHt9w-94" value="Tokenizer" style="swimlane;fontStyle=1;align=center;verticalAlign=top;childLayout=stackLayout;horizontal=1;startSize=26;horizontalStack=0;resizeParent=1;resizeParentMax=0;resizeLast=0;collapsible=1;marginBottom=0;whiteSpace=wrap;html=1;" parent="1" vertex="1">
          <mxGeometry x="-650" y="117.5" width="460" height="80" as="geometry" />
        </mxCell>
        <mxCell id="o8EcyfVFpdOXNrYhHt9w-96" value="" style="line;strokeWidth=1;fillColor=none;align=left;verticalAlign=middle;spacingTop=-1;spacingLeft=3;spacingRight=3;rotatable=0;labelPosition=right;points=[];portConstraint=eastwest;strokeColor=inherit;" parent="o8EcyfVFpdOXNrYhHt9w-94" vertex="1">
          <mxGeometry y="26" width="460" height="8" as="geometry" />
        </mxCell>
        <mxCell id="o8EcyfVFpdOXNrYhHt9w-97" value="+ operator() (inputFile: std::ifstream&amp;amp;): std::vector&amp;lt;Token&amp;gt;&lt;br&gt;- tokenizeInputFile(inputFile: std::ifstream&amp;amp;, inputTokens: std::vector&amp;lt;Token&amp;gt;&amp;amp;): void" style="text;strokeColor=none;fillColor=none;align=left;verticalAlign=top;spacingLeft=4;spacingRight=4;overflow=hidden;rotatable=0;points=[[0,0.5],[1,0.5]];portConstraint=eastwest;whiteSpace=wrap;html=1;" parent="o8EcyfVFpdOXNrYhHt9w-94" vertex="1">
          <mxGeometry y="34" width="460" height="46" as="geometry" />
        </mxCell>
        <mxCell id="o8EcyfVFpdOXNrYhHt9w-98" value="&lt;p style=&quot;margin:0px;margin-top:4px;text-align:center;&quot;&gt;&lt;i&gt;&amp;lt;&amp;lt;Struct&amp;gt;&amp;gt;&lt;/i&gt;&lt;br&gt;&lt;b&gt;Token&lt;/b&gt;&lt;/p&gt;+ LP: static constexpr int = 0&lt;br&gt;+ RP: static constexpr int = 1&lt;br&gt;+ NUM: static constexpr int&amp;nbsp;= 2&lt;br&gt;+ BLOCK: static constexpr int&amp;nbsp;= 3&lt;br&gt;+ SET:&amp;nbsp;static constexpr int&lt;span style=&quot;background-color: initial;&quot;&gt;&amp;nbsp;= 4&lt;/span&gt;&lt;br&gt;+ PRINT: static constexpr int&amp;nbsp;= 5&lt;br&gt;+ INPUT: static constexpr int&amp;nbsp;= 6&lt;br&gt;+ IF: static constexpr int&amp;nbsp;= 7&lt;br&gt;+ WHILE: static constexpr int&amp;nbsp;= 8&lt;br&gt;+ ADD: static constexpr int&amp;nbsp;= 9&lt;br&gt;+ SUB: static constexpr int&amp;nbsp;= 10&lt;br&gt;+ MUL: static constexpr int&amp;nbsp;= 11&lt;br&gt;+ DIV: static constexpr int&amp;nbsp;= 12&lt;br&gt;+ LT: static constexpr int&amp;nbsp;= 13&lt;br&gt;+ GT: static constexpr int&amp;nbsp;= 14&lt;br&gt;+ EQ: static constexpr int&amp;nbsp;= 15&lt;br&gt;+ AND: static constexpr int&amp;nbsp;= 16&lt;br&gt;+ OR:static constexpr int = 17&lt;br&gt;+ NOT: static constexpr int&amp;nbsp;= 18&lt;br&gt;+ TRUE: static constexpr int&amp;nbsp;= 19&lt;br&gt;+ FALSE: static constexpr int&amp;nbsp;= 20&lt;br&gt;+ VARIABLE_ID: static constexpr int = 21&lt;br&gt;&lt;br&gt;+ id2word: static constexpr const char*[] = { &quot;(&quot;, &quot;)&quot;, &quot;NUM&quot;, &quot;BLOCK&quot;, &quot;SET&quot;, &quot;PRINT&quot;, &quot;INPUT&quot;, &quot;IF&quot;, &quot;WHILE&quot;, &quot;ADD&quot;, &quot;SUB&quot;, &quot;MUL&quot;, &quot;DIV&quot;, &quot;LT&quot;, &quot;GT&quot;, &quot;EQ&quot;, &quot;AND&quot;, &quot;OR&quot;, &quot;NOT&quot;, &quot;TRUE&quot;, &quot;FALSE&quot;, &quot;VARIABLE_ID&quot;&amp;nbsp;&lt;br&gt;&lt;br&gt;&lt;p style=&quot;margin:0px;margin-left:4px;&quot;&gt;+ tag: int&lt;/p&gt;&lt;p style=&quot;margin:0px;margin-left:4px;&quot;&gt;+ word: std::string&lt;/p&gt;" style="verticalAlign=top;align=left;overflow=fill;fontSize=12;fontFamily=Helvetica;html=1;whiteSpace=wrap;" parent="1" vertex="1">
          <mxGeometry x="-1350" y="32.5" width="430" height="480" as="geometry" />
        </mxCell>
        <mxCell id="o8EcyfVFpdOXNrYhHt9w-99" value="ParseProgram" style="swimlane;fontStyle=1;align=center;verticalAlign=top;childLayout=stackLayout;horizontal=1;startSize=26;horizontalStack=0;resizeParent=1;resizeParentMax=0;resizeLast=0;collapsible=1;marginBottom=0;whiteSpace=wrap;html=1;" parent="1" vertex="1">
          <mxGeometry x="-720" y="257.5" width="590" height="298" as="geometry" />
        </mxCell>
        <mxCell id="o8EcyfVFpdOXNrYhHt9w-100" value="- streamEnd: std::vector&amp;lt;Token&amp;gt;::const_iterator&lt;br&gt;- bm: BlockManager&amp;amp;&lt;br&gt;- sm: StatementManager&amp;amp;&lt;br&gt;- nem: NumExprManager&amp;amp;&lt;br&gt;- bem: BoolExprManager&amp;amp;&lt;br&gt;- stmts_accumulator: std::vector&amp;lt;Statement*&amp;gt;" style="text;strokeColor=none;fillColor=none;align=left;verticalAlign=top;spacingLeft=4;spacingRight=4;overflow=hidden;rotatable=0;points=[[0,0.5],[1,0.5]];portConstraint=eastwest;whiteSpace=wrap;html=1;" parent="o8EcyfVFpdOXNrYhHt9w-99" vertex="1">
          <mxGeometry y="26" width="590" height="104" as="geometry" />
        </mxCell>
        <mxCell id="o8EcyfVFpdOXNrYhHt9w-101" value="" style="line;strokeWidth=1;fillColor=none;align=left;verticalAlign=middle;spacingTop=-1;spacingLeft=3;spacingRight=3;rotatable=0;labelPosition=right;points=[];portConstraint=eastwest;strokeColor=inherit;" parent="o8EcyfVFpdOXNrYhHt9w-99" vertex="1">
          <mxGeometry y="130" width="590" height="8" as="geometry" />
        </mxCell>
        <mxCell id="o8EcyfVFpdOXNrYhHt9w-102" value="+ operator() (tokenStream: const std::vector&amp;lt;Token&amp;gt;&amp;amp;): Program*&lt;br&gt;- parse(tokenItr: std::vectro&amp;lt;Token&amp;gt;::const_iterator&amp;amp;, tokenEnd:std::vector&amp;lt;Token&amp;gt;::const_iterator): Program*&lt;br&gt;- recursiveParse(tokenItr: std::vector&amp;lt;Token&amp;gt;::const_iterator&amp;amp;): Block*&lt;br&gt;- parseNumExpr(tokenItr: std::vector&amp;lt;Token&amp;gt;::const_iterator&amp;amp;): NumExpr*&lt;br&gt;- parseBoolExpr(tokenItr: std::vector&amp;lt;Token&amp;gt;::const_iterator&amp;amp;): BoolExpr*&lt;br&gt;- isOperator(t: int): bool&lt;br&gt;- isRelOp(b: int): bool&lt;br&gt;- isBoolConst(b: int): bool&lt;br&gt;- isBoolOperator(r: int): bool&lt;br&gt;- safe_next(itr: std::vector&amp;lt;Token&amp;gt;::const_iterator&amp;amp;): void" style="text;strokeColor=none;fillColor=none;align=left;verticalAlign=top;spacingLeft=4;spacingRight=4;overflow=hidden;rotatable=0;points=[[0,0.5],[1,0.5]];portConstraint=eastwest;whiteSpace=wrap;html=1;" parent="o8EcyfVFpdOXNrYhHt9w-99" vertex="1">
          <mxGeometry y="138" width="590" height="160" as="geometry" />
        </mxCell>
        <mxCell id="o8EcyfVFpdOXNrYhHt9w-103" value="BlockManager" style="swimlane;fontStyle=1;align=center;verticalAlign=top;childLayout=stackLayout;horizontal=1;startSize=26;horizontalStack=0;resizeParent=1;resizeParentMax=0;resizeLast=0;collapsible=1;marginBottom=0;whiteSpace=wrap;html=1;" parent="1" vertex="1">
          <mxGeometry x="320" y="-162" width="270" height="110" as="geometry" />
        </mxCell>
        <mxCell id="o8EcyfVFpdOXNrYhHt9w-104" value="- blks_allocated: std::vector&amp;lt;Block*&amp;gt;" style="text;strokeColor=none;fillColor=none;align=left;verticalAlign=top;spacingLeft=4;spacingRight=4;overflow=hidden;rotatable=0;points=[[0,0.5],[1,0.5]];portConstraint=eastwest;whiteSpace=wrap;html=1;" parent="o8EcyfVFpdOXNrYhHt9w-103" vertex="1">
          <mxGeometry y="26" width="270" height="34" as="geometry" />
        </mxCell>
        <mxCell id="o8EcyfVFpdOXNrYhHt9w-105" value="" style="line;strokeWidth=1;fillColor=none;align=left;verticalAlign=middle;spacingTop=-1;spacingLeft=3;spacingRight=3;rotatable=0;labelPosition=right;points=[];portConstraint=eastwest;strokeColor=inherit;" parent="o8EcyfVFpdOXNrYhHt9w-103" vertex="1">
          <mxGeometry y="60" width="270" height="8" as="geometry" />
        </mxCell>
        <mxCell id="o8EcyfVFpdOXNrYhHt9w-106" value="+ makeBlock(stmts: std::vector&amp;lt;Block*&amp;gt;): Block*&lt;br&gt;+ clear_memory(): void" style="text;strokeColor=none;fillColor=none;align=left;verticalAlign=top;spacingLeft=4;spacingRight=4;overflow=hidden;rotatable=0;points=[[0,0.5],[1,0.5]];portConstraint=eastwest;whiteSpace=wrap;html=1;" parent="o8EcyfVFpdOXNrYhHt9w-103" vertex="1">
          <mxGeometry y="68" width="270" height="42" as="geometry" />
        </mxCell>
        <mxCell id="o8EcyfVFpdOXNrYhHt9w-109" value="EvaluationVisitor" style="swimlane;fontStyle=1;align=center;verticalAlign=top;childLayout=stackLayout;horizontal=1;startSize=26;horizontalStack=0;resizeParent=1;resizeParentMax=0;resizeLast=0;collapsible=1;marginBottom=0;whiteSpace=wrap;html=1;" parent="1" vertex="1">
          <mxGeometry x="1654" y="1380" width="250" height="280" as="geometry" />
        </mxCell>
        <mxCell id="o8EcyfVFpdOXNrYhHt9w-110" value="- accumulator: std::vector&amp;lt;int64_t&amp;gt;&lt;br&gt;- vars: std::map&amp;lt;std::string, int64_t&amp;gt;" style="text;strokeColor=none;fillColor=none;align=left;verticalAlign=top;spacingLeft=4;spacingRight=4;overflow=hidden;rotatable=0;points=[[0,0.5],[1,0.5]];portConstraint=eastwest;whiteSpace=wrap;html=1;" parent="o8EcyfVFpdOXNrYhHt9w-109" vertex="1">
          <mxGeometry y="26" width="250" height="44" as="geometry" />
        </mxCell>
        <mxCell id="o8EcyfVFpdOXNrYhHt9w-111" value="" style="line;strokeWidth=1;fillColor=none;align=left;verticalAlign=middle;spacingTop=-1;spacingLeft=3;spacingRight=3;rotatable=0;labelPosition=right;points=[];portConstraint=eastwest;strokeColor=inherit;" parent="o8EcyfVFpdOXNrYhHt9w-109" vertex="1">
          <mxGeometry y="70" width="250" height="8" as="geometry" />
        </mxCell>
        <mxCell id="o8EcyfVFpdOXNrYhHt9w-112" value="+ visitProgram(prg: Program*): void&lt;br&gt;+ visitBlock(blk: Block*): void&lt;br&gt;+ visitSet(s: SetStmt*): void&lt;br&gt;+ visitInput(s: InputStmt*): void&lt;br&gt;+ visitPrint(s: PrintStmt*): void&lt;br&gt;+ visitIf(s: IfStmt*): void&lt;br&gt;+ visitWhile(s: WhileStmt*): void&lt;br&gt;+ visitOperator(opNode: Operator*): void&lt;br&gt;+ visitNumber(numNode: Number*): void&lt;br&gt;+ visitVariable(varNode: Variable*): void&lt;br&gt;+ visitRelOp(rop: RelOp*): void&lt;br&gt;+ visitBoolConst(bconst: BoolConst*): void&lt;br&gt;+ visitBoolOp(bop: BoolOp*): void" style="text;strokeColor=none;fillColor=none;align=left;verticalAlign=top;spacingLeft=4;spacingRight=4;overflow=hidden;rotatable=0;points=[[0,0.5],[1,0.5]];portConstraint=eastwest;whiteSpace=wrap;html=1;" parent="o8EcyfVFpdOXNrYhHt9w-109" vertex="1">
          <mxGeometry y="78" width="250" height="202" as="geometry" />
        </mxCell>
        <mxCell id="o8EcyfVFpdOXNrYhHt9w-113" value="PrintVisitor" style="swimlane;fontStyle=1;align=center;verticalAlign=top;childLayout=stackLayout;horizontal=1;startSize=26;horizontalStack=0;resizeParent=1;resizeParentMax=0;resizeLast=0;collapsible=1;marginBottom=0;whiteSpace=wrap;html=1;" parent="1" vertex="1">
          <mxGeometry x="1330" y="1380" width="250" height="236" as="geometry" />
        </mxCell>
        <mxCell id="o8EcyfVFpdOXNrYhHt9w-115" value="" style="line;strokeWidth=1;fillColor=none;align=left;verticalAlign=middle;spacingTop=-1;spacingLeft=3;spacingRight=3;rotatable=0;labelPosition=right;points=[];portConstraint=eastwest;strokeColor=inherit;" parent="o8EcyfVFpdOXNrYhHt9w-113" vertex="1">
          <mxGeometry y="26" width="250" height="8" as="geometry" />
        </mxCell>
        <mxCell id="o8EcyfVFpdOXNrYhHt9w-116" value="+ visitProgram(prg: Program*): void&lt;br&gt;+ visitBlock(blk: Block*): void&lt;br&gt;+ visitSet(s: SetStmt*): void&lt;br&gt;+ visitInput(s: InputStmt*): void&lt;br&gt;+ visitPrint(s: PrintStmt*): void&lt;br&gt;+ visitIf(s: IfStmt*): void&lt;br&gt;+ visitWhile(s: WhileStmt*): void&lt;br&gt;+ visitOperator(opNode: Operator*): void&lt;br&gt;+ visitNumber(numNode: Number*): void&lt;br&gt;+ visitVariable(varNode: Variable*): void&lt;br&gt;+ visitRelOp(rop: RelOp*): void&lt;br&gt;+ visitBoolConst(bconst: BoolConst*): void&lt;br&gt;+ visitBoolOp(bop: BoolOp*): void" style="text;strokeColor=none;fillColor=none;align=left;verticalAlign=top;spacingLeft=4;spacingRight=4;overflow=hidden;rotatable=0;points=[[0,0.5],[1,0.5]];portConstraint=eastwest;whiteSpace=wrap;html=1;" parent="o8EcyfVFpdOXNrYhHt9w-113" vertex="1">
          <mxGeometry y="34" width="250" height="202" as="geometry" />
        </mxCell>
        <mxCell id="o8EcyfVFpdOXNrYhHt9w-122" value="&lt;span style=&quot;font-weight: normal;&quot;&gt;&lt;i&gt;Visitor&lt;/i&gt;&lt;/span&gt;" style="swimlane;fontStyle=1;align=center;verticalAlign=top;childLayout=stackLayout;horizontal=1;startSize=26;horizontalStack=0;resizeParent=1;resizeParentMax=0;resizeLast=0;collapsible=1;marginBottom=0;whiteSpace=wrap;html=1;" parent="1" vertex="1">
          <mxGeometry x="1470" y="1030" width="250" height="280" as="geometry" />
        </mxCell>
        <mxCell id="o8EcyfVFpdOXNrYhHt9w-123" value="+ TRUE_VAL: static constexpr int = 1&lt;br&gt;+ FALSE_VAL: static constexpr int = 0" style="text;strokeColor=none;fillColor=none;align=left;verticalAlign=top;spacingLeft=4;spacingRight=4;overflow=hidden;rotatable=0;points=[[0,0.5],[1,0.5]];portConstraint=eastwest;whiteSpace=wrap;html=1;" parent="o8EcyfVFpdOXNrYhHt9w-122" vertex="1">
          <mxGeometry y="26" width="250" height="44" as="geometry" />
        </mxCell>
        <mxCell id="o8EcyfVFpdOXNrYhHt9w-124" value="" style="line;strokeWidth=1;fillColor=none;align=left;verticalAlign=middle;spacingTop=-1;spacingLeft=3;spacingRight=3;rotatable=0;labelPosition=right;points=[];portConstraint=eastwest;strokeColor=inherit;" parent="o8EcyfVFpdOXNrYhHt9w-122" vertex="1">
          <mxGeometry y="70" width="250" height="8" as="geometry" />
        </mxCell>
        <mxCell id="o8EcyfVFpdOXNrYhHt9w-125" value="&lt;i&gt;+ visitProgram(prg: Program*): void&lt;br&gt;+ visitBlock(blk: Block*): void&lt;br&gt;+ visitSet(s: SetStmt*): void&lt;br&gt;+ visitInput(s: InputStmt*): void&lt;br&gt;+ visitPrint(s: PrintStmt*): void&lt;br&gt;+ visitIf(s: IfStmt*): void&lt;br&gt;+ visitWhile(s: WhileStmt*): void&lt;br&gt;+ visitOperator(opNode: Operator*): void&lt;br&gt;+ visitNumber(numNode: Number*): void&lt;br&gt;+ visitVariable(varNode: Variable*): void&lt;br&gt;+ visitRelOp(rop: RelOp*): void&lt;br&gt;+ visitBoolConst(bconst: BoolConst*): void&lt;br&gt;+ visitBoolOp(bop: BoolOp*): void&lt;/i&gt;" style="text;strokeColor=none;fillColor=none;align=left;verticalAlign=top;spacingLeft=4;spacingRight=4;overflow=hidden;rotatable=0;points=[[0,0.5],[1,0.5]];portConstraint=eastwest;whiteSpace=wrap;html=1;" parent="o8EcyfVFpdOXNrYhHt9w-122" vertex="1">
          <mxGeometry y="78" width="250" height="202" as="geometry" />
        </mxCell>
        <mxCell id="o8EcyfVFpdOXNrYhHt9w-126" value="" style="endArrow=block;endSize=16;endFill=0;html=1;rounded=0;edgeStyle=orthogonalEdgeStyle;" parent="1" source="o8EcyfVFpdOXNrYhHt9w-109" target="o8EcyfVFpdOXNrYhHt9w-122" edge="1">
          <mxGeometry x="0.0025" width="160" relative="1" as="geometry">
            <mxPoint x="1770" y="1210" as="sourcePoint" />
            <mxPoint x="1930" y="1210" as="targetPoint" />
            <mxPoint as="offset" />
          </mxGeometry>
        </mxCell>
        <mxCell id="o8EcyfVFpdOXNrYhHt9w-128" value="" style="endArrow=block;endSize=16;endFill=0;html=1;rounded=0;edgeStyle=orthogonalEdgeStyle;" parent="1" source="o8EcyfVFpdOXNrYhHt9w-113" target="o8EcyfVFpdOXNrYhHt9w-122" edge="1">
          <mxGeometry width="160" relative="1" as="geometry">
            <mxPoint x="1680" y="1270" as="sourcePoint" />
            <mxPoint x="1840" y="1270" as="targetPoint" />
          </mxGeometry>
        </mxCell>
        <mxCell id="o8EcyfVFpdOXNrYhHt9w-129" value="" style="endArrow=open;endFill=1;endSize=12;html=1;rounded=0;edgeStyle=orthogonalEdgeStyle;" parent="1" source="Ar0EWjiSAePKsgkhpnwZ-1" target="o8EcyfVFpdOXNrYhHt9w-122" edge="1">
          <mxGeometry width="160" relative="1" as="geometry">
            <mxPoint x="1170" y="920" as="sourcePoint" />
            <mxPoint x="1330" y="920" as="targetPoint" />
            <Array as="points">
              <mxPoint x="1080" y="626" />
              <mxPoint x="1080" y="1000" />
              <mxPoint x="1595" y="1000" />
            </Array>
          </mxGeometry>
        </mxCell>
        <mxCell id="o8EcyfVFpdOXNrYhHt9w-130" value="" style="endArrow=open;endFill=1;endSize=12;html=1;rounded=0;edgeStyle=orthogonalEdgeStyle;" parent="1" source="o8EcyfVFpdOXNrYhHt9w-27" target="o8EcyfVFpdOXNrYhHt9w-122" edge="1">
          <mxGeometry width="160" relative="1" as="geometry">
            <mxPoint x="1730" y="890" as="sourcePoint" />
            <mxPoint x="1890" y="890" as="targetPoint" />
            <Array as="points">
              <mxPoint x="1760" y="626" />
              <mxPoint x="1760" y="1000" />
              <mxPoint x="1595" y="1000" />
            </Array>
          </mxGeometry>
        </mxCell>
        <mxCell id="o8EcyfVFpdOXNrYhHt9w-131" value="" style="endArrow=open;endFill=1;endSize=12;html=1;rounded=0;edgeStyle=orthogonalEdgeStyle;" parent="1" source="Ar0EWjiSAePKsgkhpnwZ-28" target="o8EcyfVFpdOXNrYhHt9w-122" edge="1">
          <mxGeometry width="160" relative="1" as="geometry">
            <mxPoint x="1820" y="900" as="sourcePoint" />
            <mxPoint x="1610" y="1050" as="targetPoint" />
            <Array as="points">
              <mxPoint x="2860" y="180" />
              <mxPoint x="2860" y="1000" />
              <mxPoint x="1595" y="1000" />
            </Array>
          </mxGeometry>
        </mxCell>
        <mxCell id="o8EcyfVFpdOXNrYhHt9w-132" value="w" style="endArrow=open;endFill=1;endSize=12;html=1;rounded=0;edgeStyle=orthogonalEdgeStyle;startArrow=none;startFill=0;" parent="1" source="o8EcyfVFpdOXNrYhHt9w-52" target="o8EcyfVFpdOXNrYhHt9w-122" edge="1">
          <mxGeometry width="160" relative="1" as="geometry">
            <mxPoint x="1240" y="150" as="sourcePoint" />
            <mxPoint x="1610" y="1040" as="targetPoint" />
            <Array as="points">
              <mxPoint x="1820" y="-70" />
              <mxPoint x="1820" y="180" />
              <mxPoint x="2860" y="180" />
              <mxPoint x="2860" y="1000" />
              <mxPoint x="1595" y="1000" />
            </Array>
          </mxGeometry>
        </mxCell>
        <mxCell id="o8EcyfVFpdOXNrYhHt9w-133" value="" style="endArrow=open;endFill=1;endSize=12;html=1;rounded=0;edgeStyle=orthogonalEdgeStyle;" parent="1" source="o8EcyfVFpdOXNrYhHt9w-56" target="o8EcyfVFpdOXNrYhHt9w-122" edge="1">
          <mxGeometry width="160" relative="1" as="geometry">
            <mxPoint x="1030" y="-310" as="sourcePoint" />
            <mxPoint x="2035" y="1060" as="targetPoint" />
            <Array as="points">
              <mxPoint x="1820" y="-278" />
              <mxPoint x="1820" y="180" />
              <mxPoint x="2860" y="180" />
              <mxPoint x="2860" y="1000" />
              <mxPoint x="1595" y="1000" />
            </Array>
          </mxGeometry>
        </mxCell>
        <mxCell id="o8EcyfVFpdOXNrYhHt9w-134" value="" style="endArrow=open;endFill=1;endSize=12;html=1;rounded=0;edgeStyle=orthogonalEdgeStyle;" parent="1" source="o8EcyfVFpdOXNrYhHt9w-94" target="o8EcyfVFpdOXNrYhHt9w-98" edge="1">
          <mxGeometry width="160" relative="1" as="geometry">
            <mxPoint x="-430" y="307.5" as="sourcePoint" />
            <mxPoint x="-270" y="307.5" as="targetPoint" />
            <Array as="points">
              <mxPoint x="-810" y="157.5" />
              <mxPoint x="-810" y="232.5" />
            </Array>
          </mxGeometry>
        </mxCell>
        <mxCell id="o8EcyfVFpdOXNrYhHt9w-136" value="" style="endArrow=diamondThin;endFill=0;endSize=24;html=1;rounded=0;edgeStyle=orthogonalEdgeStyle;startArrow=open;startFill=0;" parent="1" source="o8EcyfVFpdOXNrYhHt9w-98" target="o8EcyfVFpdOXNrYhHt9w-99" edge="1">
          <mxGeometry width="160" relative="1" as="geometry">
            <mxPoint x="-315" y="647.5" as="sourcePoint" />
            <mxPoint x="-155" y="647.5" as="targetPoint" />
            <Array as="points">
              <mxPoint x="-810" y="272.5" />
              <mxPoint x="-810" y="387.5" />
            </Array>
          </mxGeometry>
        </mxCell>
        <mxCell id="o8EcyfVFpdOXNrYhHt9w-137" value="n" style="text;html=1;align=center;verticalAlign=middle;resizable=0;points=[];autosize=1;strokeColor=none;fillColor=none;" parent="1" vertex="1">
          <mxGeometry x="-920" y="270" width="30" height="30" as="geometry" />
        </mxCell>
        <mxCell id="o8EcyfVFpdOXNrYhHt9w-139" value="" style="endArrow=diamondThin;endFill=0;endSize=24;html=1;rounded=0;edgeStyle=orthogonalEdgeStyle;startArrow=open;startFill=0;" parent="1" source="o8EcyfVFpdOXNrYhHt9w-103" target="o8EcyfVFpdOXNrYhHt9w-99" edge="1">
          <mxGeometry width="160" relative="1" as="geometry">
            <mxPoint x="-10" y="280" as="sourcePoint" />
            <mxPoint x="150" y="280" as="targetPoint" />
            <Array as="points">
              <mxPoint x="440" y="370" />
            </Array>
          </mxGeometry>
        </mxCell>
        <mxCell id="o8EcyfVFpdOXNrYhHt9w-140" value="" style="endArrow=diamondThin;endFill=0;endSize=24;html=1;rounded=0;edgeStyle=orthogonalEdgeStyle;startArrow=open;startFill=0;" parent="1" source="o8EcyfVFpdOXNrYhHt9w-48" target="o8EcyfVFpdOXNrYhHt9w-99" edge="1">
          <mxGeometry width="160" relative="1" as="geometry">
            <mxPoint x="70" y="280" as="sourcePoint" />
            <mxPoint x="230" y="280" as="targetPoint" />
            <Array as="points">
              <mxPoint x="440" y="370" />
            </Array>
          </mxGeometry>
        </mxCell>
        <mxCell id="o8EcyfVFpdOXNrYhHt9w-141" value="" style="endArrow=diamondThin;endFill=0;endSize=24;html=1;rounded=0;edgeStyle=orthogonalEdgeStyle;startArrow=open;startFill=0;" parent="1" source="o8EcyfVFpdOXNrYhHt9w-44" target="o8EcyfVFpdOXNrYhHt9w-99" edge="1">
          <mxGeometry width="160" relative="1" as="geometry">
            <mxPoint x="2540" y="450" as="sourcePoint" />
            <mxPoint x="-40" y="490" as="targetPoint" />
            <Array as="points">
              <mxPoint x="2840" y="577" />
              <mxPoint x="2840" y="1720" />
              <mxPoint x="10" y="1720" />
              <mxPoint x="10" y="370" />
            </Array>
          </mxGeometry>
        </mxCell>
        <mxCell id="o8EcyfVFpdOXNrYhHt9w-142" value="1" style="text;html=1;align=center;verticalAlign=middle;resizable=0;points=[];autosize=1;strokeColor=none;fillColor=none;" parent="1" vertex="1">
          <mxGeometry x="-110" y="332" width="30" height="30" as="geometry" />
        </mxCell>
        <mxCell id="g494wXo6Ox_YzKsTI5kO-1" value="" style="endArrow=diamondThin;endFill=0;endSize=24;html=1;rounded=0;edgeStyle=orthogonalEdgeStyle;startArrow=open;startFill=0;" parent="1" source="o8EcyfVFpdOXNrYhHt9w-52" target="o8EcyfVFpdOXNrYhHt9w-103" edge="1">
          <mxGeometry width="160" relative="1" as="geometry">
            <mxPoint x="810" y="-30" as="sourcePoint" />
            <mxPoint x="970" y="-30" as="targetPoint" />
          </mxGeometry>
        </mxCell>
        <mxCell id="g494wXo6Ox_YzKsTI5kO-2" value="n" style="text;html=1;align=center;verticalAlign=middle;resizable=0;points=[];autosize=1;strokeColor=none;fillColor=none;" parent="1" vertex="1">
          <mxGeometry x="735" y="-140" width="30" height="30" as="geometry" />
        </mxCell>
        <mxCell id="01E-O1BCIWSUGagIYbbL-1" value="StatementManager" style="swimlane;fontStyle=1;align=center;verticalAlign=top;childLayout=stackLayout;horizontal=1;startSize=26;horizontalStack=0;resizeParent=1;resizeParentMax=0;resizeLast=0;collapsible=1;marginBottom=0;whiteSpace=wrap;html=1;" parent="1" vertex="1">
          <mxGeometry x="600" y="32.5" width="470" height="200" as="geometry" />
        </mxCell>
        <mxCell id="01E-O1BCIWSUGagIYbbL-2" value="- stmts_allocated: std::vector&amp;lt;Statement*&amp;gt;" style="text;strokeColor=none;fillColor=none;align=left;verticalAlign=top;spacingLeft=4;spacingRight=4;overflow=hidden;rotatable=0;points=[[0,0.5],[1,0.5]];portConstraint=eastwest;whiteSpace=wrap;html=1;" parent="01E-O1BCIWSUGagIYbbL-1" vertex="1">
          <mxGeometry y="26" width="470" height="34" as="geometry" />
        </mxCell>
        <mxCell id="01E-O1BCIWSUGagIYbbL-3" value="" style="line;strokeWidth=1;fillColor=none;align=left;verticalAlign=middle;spacingTop=-1;spacingLeft=3;spacingRight=3;rotatable=0;labelPosition=right;points=[];portConstraint=eastwest;strokeColor=inherit;" parent="01E-O1BCIWSUGagIYbbL-1" vertex="1">
          <mxGeometry y="60" width="470" height="8" as="geometry" />
        </mxCell>
        <mxCell id="01E-O1BCIWSUGagIYbbL-4" value="+ makeBlock(stmts: std::vector): Block*&lt;br&gt;+ makeSetStmt(nexpr: NumExpr*, var: Variable*): Statement*&lt;br&gt;+ makeInputStmt(v: Variable*): Statement*&lt;br&gt;+ makePrintStmt(nexpr: NumExpr*): Statement*&lt;br&gt;+ makeIfStmt(bexpr: BoolExpr*, stmt_block1: Block*, stmt_block2: Block*): Statement*&lt;br&gt;+ makeWhileStmt(bexpr: BoolExpr*, stmt_blk: Block*): Statement*&lt;br&gt;+ clear_memory(): void" style="text;strokeColor=none;fillColor=none;align=left;verticalAlign=top;spacingLeft=4;spacingRight=4;overflow=hidden;rotatable=0;points=[[0,0.5],[1,0.5]];portConstraint=eastwest;whiteSpace=wrap;html=1;" parent="01E-O1BCIWSUGagIYbbL-1" vertex="1">
          <mxGeometry y="68" width="470" height="132" as="geometry" />
        </mxCell>
        <mxCell id="01E-O1BCIWSUGagIYbbL-6" value="" style="endArrow=diamondThin;endFill=0;endSize=24;html=1;rounded=0;edgeStyle=orthogonalEdgeStyle;startArrow=open;startFill=0;" parent="1" source="Ar0EWjiSAePKsgkhpnwZ-28" target="01E-O1BCIWSUGagIYbbL-1" edge="1">
          <mxGeometry width="160" relative="1" as="geometry">
            <mxPoint x="880" y="90" as="sourcePoint" />
            <mxPoint x="1040" y="90" as="targetPoint" />
          </mxGeometry>
        </mxCell>
        <mxCell id="01E-O1BCIWSUGagIYbbL-8" value="n" style="text;html=1;align=center;verticalAlign=middle;resizable=0;points=[];autosize=1;strokeColor=none;fillColor=none;" parent="1" vertex="1">
          <mxGeometry x="1190" y="147.5" width="30" height="30" as="geometry" />
        </mxCell>
        <mxCell id="01E-O1BCIWSUGagIYbbL-9" value="" style="endArrow=diamondThin;endFill=0;endSize=24;html=1;rounded=0;edgeStyle=orthogonalEdgeStyle;startArrow=open;startFill=0;" parent="1" source="01E-O1BCIWSUGagIYbbL-1" target="o8EcyfVFpdOXNrYhHt9w-99" edge="1">
          <mxGeometry width="160" relative="1" as="geometry">
            <mxPoint x="240" y="240" as="sourcePoint" />
            <mxPoint x="400" y="240" as="targetPoint" />
            <Array as="points">
              <mxPoint x="440" y="133" />
              <mxPoint x="440" y="370" />
            </Array>
          </mxGeometry>
        </mxCell>
        <mxCell id="mBwZ-GsgK13il0Nls61B-1" value="1" style="text;html=1;align=center;verticalAlign=middle;resizable=0;points=[];autosize=1;strokeColor=none;fillColor=none;" parent="1" vertex="1">
          <mxGeometry x="-760" y="394" width="30" height="30" as="geometry" />
        </mxCell>
        <mxCell id="mBwZ-GsgK13il0Nls61B-2" value="1" style="text;html=1;align=center;verticalAlign=middle;resizable=0;points=[];autosize=1;strokeColor=none;fillColor=none;" parent="1" vertex="1">
          <mxGeometry x="860" y="-180" width="30" height="30" as="geometry" />
        </mxCell>
        <mxCell id="mBwZ-GsgK13il0Nls61B-4" value="1" style="text;html=1;align=center;verticalAlign=middle;resizable=0;points=[];autosize=1;strokeColor=none;fillColor=none;" parent="1" vertex="1">
          <mxGeometry x="600" y="-140" width="30" height="30" as="geometry" />
        </mxCell>
        <mxCell id="mBwZ-GsgK13il0Nls61B-5" value="1" style="text;html=1;align=center;verticalAlign=middle;resizable=0;points=[];autosize=1;strokeColor=none;fillColor=none;" parent="1" vertex="1">
          <mxGeometry x="965" y="-122" width="30" height="30" as="geometry" />
        </mxCell>
        <mxCell id="mBwZ-GsgK13il0Nls61B-6" value="2" style="text;html=1;align=center;verticalAlign=middle;resizable=0;points=[];autosize=1;strokeColor=none;fillColor=none;" parent="1" vertex="1">
          <mxGeometry x="965" y="-170" width="30" height="30" as="geometry" />
        </mxCell>
        <mxCell id="mBwZ-GsgK13il0Nls61B-7" value="n" style="text;html=1;align=center;verticalAlign=middle;resizable=0;points=[];autosize=1;strokeColor=none;fillColor=none;" parent="1" vertex="1">
          <mxGeometry x="1300" y="117.5" width="30" height="30" as="geometry" />
        </mxCell>
        <mxCell id="mBwZ-GsgK13il0Nls61B-8" value="1" style="text;html=1;align=center;verticalAlign=middle;resizable=0;points=[];autosize=1;strokeColor=none;fillColor=none;" parent="1" vertex="1">
          <mxGeometry x="1090" y="100" width="30" height="30" as="geometry" />
        </mxCell>
        <mxCell id="mBwZ-GsgK13il0Nls61B-10" value="1" style="text;html=1;align=center;verticalAlign=middle;resizable=0;points=[];autosize=1;strokeColor=none;fillColor=none;" parent="1" vertex="1">
          <mxGeometry x="570" y="100" width="30" height="30" as="geometry" />
        </mxCell>
        <mxCell id="mBwZ-GsgK13il0Nls61B-11" value="1" style="text;html=1;align=center;verticalAlign=middle;resizable=0;points=[];autosize=1;strokeColor=none;fillColor=none;" parent="1" vertex="1">
          <mxGeometry x="440" y="-52" width="30" height="30" as="geometry" />
        </mxCell>
        <mxCell id="mBwZ-GsgK13il0Nls61B-12" value="1" style="text;html=1;align=center;verticalAlign=middle;resizable=0;points=[];autosize=1;strokeColor=none;fillColor=none;" parent="1" vertex="1">
          <mxGeometry x="550" y="540" width="30" height="30" as="geometry" />
        </mxCell>
        <mxCell id="mBwZ-GsgK13il0Nls61B-13" value="1" style="text;html=1;align=center;verticalAlign=middle;resizable=0;points=[];autosize=1;strokeColor=none;fillColor=none;" parent="1" vertex="1">
          <mxGeometry x="600" y="700" width="30" height="30" as="geometry" />
        </mxCell>
        <mxCell id="mBwZ-GsgK13il0Nls61B-14" value="1" style="text;html=1;align=center;verticalAlign=middle;resizable=0;points=[];autosize=1;strokeColor=none;fillColor=none;" parent="1" vertex="1">
          <mxGeometry x="440" y="470" width="30" height="30" as="geometry" />
        </mxCell>
        <mxCell id="mBwZ-GsgK13il0Nls61B-15" value="1" style="text;html=1;align=center;verticalAlign=middle;resizable=0;points=[];autosize=1;strokeColor=none;fillColor=none;" parent="1" vertex="1">
          <mxGeometry x="1170" y="710" width="30" height="30" as="geometry" />
        </mxCell>
        <mxCell id="mBwZ-GsgK13il0Nls61B-16" value="1" style="text;html=1;align=center;verticalAlign=middle;resizable=0;points=[];autosize=1;strokeColor=none;fillColor=none;" parent="1" vertex="1">
          <mxGeometry x="2180" y="548" width="30" height="30" as="geometry" />
        </mxCell>
        <mxCell id="mBwZ-GsgK13il0Nls61B-19" value="1" style="text;html=1;align=center;verticalAlign=middle;resizable=0;points=[];autosize=1;strokeColor=none;fillColor=none;" parent="1" vertex="1">
          <mxGeometry x="2010" y="710" width="30" height="30" as="geometry" />
        </mxCell>
        <mxCell id="mBwZ-GsgK13il0Nls61B-20" value="1" style="text;html=1;align=center;verticalAlign=middle;resizable=0;points=[];autosize=1;strokeColor=none;fillColor=none;" parent="1" vertex="1">
          <mxGeometry x="2760" y="548" width="30" height="30" as="geometry" />
        </mxCell>
        <mxCell id="mBwZ-GsgK13il0Nls61B-21" value="1" style="text;html=1;align=center;verticalAlign=middle;resizable=0;points=[];autosize=1;strokeColor=none;fillColor=none;" parent="1" vertex="1">
          <mxGeometry x="925" y="570" width="30" height="30" as="geometry" />
        </mxCell>
      </root>
    </mxGraphModel>
  </diagram>
</mxfile>
